<svg width="516" height="387" viewBox="0 0 516 387" fill="none" xmlns="http://www.w3.org/2000/svg">
<path d="M196.933 291.069H138.791C137.881 291.069 137.143 291.805 137.143 292.713V311.724C137.143 312.633 137.881 313.369 138.791 313.369H196.933C197.844 313.369 198.582 312.633 198.582 311.724V292.713C198.582 291.805 197.844 291.069 196.933 291.069Z" fill="white"/>
<path fill-rule="evenodd" clip-rule="evenodd" d="M138.791 313.876H196.93C198.12 313.874 199.083 312.911 199.083 311.724V292.713C199.081 291.528 198.118 290.567 196.93 290.565H138.791C137.601 290.565 136.637 291.526 136.635 292.713V311.724C136.637 312.912 137.601 313.874 138.791 313.876ZM137.644 292.713C137.646 292.083 138.159 291.572 138.791 291.572H196.93C197.562 291.572 198.074 292.083 198.074 292.713V311.724C198.074 312.355 197.562 312.867 196.93 312.869H138.791C138.487 312.869 138.195 312.748 137.98 312.534C137.765 312.319 137.644 312.028 137.644 311.724V292.713Z" fill="#D8D3DA"/>
<path d="M197.892 312.872C197.856 312.872 197.819 312.866 197.784 312.855L137.341 292.072C137.223 292.037 137.135 291.94 137.109 291.819C137.084 291.699 137.127 291.574 137.221 291.495C137.315 291.416 137.445 291.393 137.56 291.438L198.003 312.221C198.179 312.281 198.272 312.472 198.212 312.647C198.164 312.783 198.036 312.873 197.892 312.872Z" fill="#D8D3DA"/>
<path d="M137.64 312.872C137.478 312.87 137.34 312.753 137.313 312.593C137.285 312.433 137.377 312.277 137.529 312.221L184.898 295.932C185.071 295.88 185.255 295.974 185.314 296.144C185.372 296.315 185.285 296.501 185.117 296.567L137.748 312.856C137.713 312.866 137.677 312.871 137.64 312.872Z" fill="#D8D3DA"/>
<path d="M187.71 295.657C187.544 295.66 187.4 295.541 187.372 295.377C187.345 295.214 187.441 295.054 187.599 295.002L197.973 291.438C198.088 291.393 198.218 291.416 198.312 291.495C198.405 291.574 198.448 291.699 198.423 291.819C198.398 291.94 198.31 292.037 198.191 292.072L187.821 295.637C187.786 295.65 187.748 295.657 187.71 295.657Z" fill="#D8D3DA"/>
<path d="M196.876 256.893H61.8383C60.8983 256.893 60.1362 257.653 60.1362 258.591V277.569C60.1362 278.507 60.8983 279.267 61.8383 279.267H196.876C197.816 279.267 198.578 278.507 198.578 277.569V258.591C198.578 257.653 197.816 256.893 196.876 256.893Z" fill="white"/>
<path fill-rule="evenodd" clip-rule="evenodd" d="M61.8383 279.771H196.876C198.092 279.769 199.077 278.788 199.083 277.576V258.591C199.083 257.375 198.095 256.39 196.876 256.39H61.8383C60.6196 256.39 59.6317 257.375 59.6317 258.591V277.566C59.6317 278.782 60.6193 279.769 61.8383 279.771ZM60.6408 258.591C60.6428 257.932 61.1776 257.398 61.8383 257.397L196.876 257.407C197.538 257.407 198.074 257.942 198.074 258.602V277.576C198.075 277.893 197.949 278.198 197.724 278.423C197.5 278.647 197.194 278.774 196.876 278.774H61.8383C61.1766 278.772 60.6408 278.236 60.6408 277.576V258.591Z" fill="#D8D3DA"/>
<path d="M162.626 264.784H173.094C173.206 264.786 173.307 264.851 173.353 264.952C173.4 265.053 173.384 265.172 173.313 265.257L168.385 270.963C168.258 271.122 168.065 271.215 167.86 271.215C167.657 271.215 167.464 271.122 167.336 270.963L162.408 265.257C162.336 265.172 162.321 265.053 162.367 264.952C162.414 264.851 162.515 264.786 162.626 264.784Z" fill="white"/>
<path fill-rule="evenodd" clip-rule="evenodd" d="M166.952 271.306C167.18 271.57 167.512 271.722 167.86 271.722C168.209 271.721 168.541 271.569 168.769 271.306L173.693 265.6C173.896 265.366 173.944 265.036 173.815 264.755C173.686 264.473 173.405 264.294 173.094 264.294H162.626C162.317 264.294 162.035 264.473 161.906 264.755C161.777 265.036 161.825 265.366 162.028 265.6L166.952 271.306ZM167.716 270.658L163.097 265.288H172.62L168.005 270.658C167.969 270.701 167.916 270.725 167.86 270.725C167.805 270.725 167.752 270.701 167.716 270.658Z" fill="#D8D3DA"/>
<path d="M94.7795 270.551C94.6813 270.551 94.5877 270.508 94.5238 270.433L88.3009 263.13C88.2229 263.038 88.1993 262.913 88.2394 262.8C88.2797 262.687 88.3769 262.603 88.495 262.581C88.6134 262.559 88.7342 262.602 88.8122 262.693L95.0351 270C95.1186 270.1 95.1367 270.239 95.0819 270.356C95.0274 270.474 94.9097 270.55 94.7795 270.551Z" fill="#D8D3DA"/>
<path d="M94.3893 265.301C94.29 265.302 94.1952 265.259 94.1303 265.184L92.5964 263.385C92.4757 263.243 92.4931 263.03 92.6351 262.91C92.7774 262.789 92.9903 262.806 93.1111 262.948L94.6449 264.751C94.7028 264.819 94.7307 264.907 94.7233 264.996C94.7156 265.084 94.6728 265.166 94.6046 265.224C94.544 265.274 94.468 265.301 94.3893 265.301Z" fill="#D8D3DA"/>
<path d="M90.6085 270.446C90.5103 270.446 90.4167 270.403 90.3528 270.329L87.0294 266.425C86.9716 266.358 86.943 266.27 86.9497 266.181C86.9568 266.092 86.9988 266.01 87.0665 265.952C87.1347 265.895 87.2232 265.867 87.312 265.874C87.4011 265.882 87.4832 265.924 87.5407 265.992L90.8641 269.896C90.9476 269.996 90.9657 270.134 90.9109 270.252C90.8564 270.37 90.7387 270.445 90.6085 270.446Z" fill="#D8D3DA"/>
<path d="M455.466 61.1949H346.436V140.068H455.466V61.1949Z" fill="white"/>
<path fill-rule="evenodd" clip-rule="evenodd" d="M346.436 140.579H455.466C455.6 140.579 455.728 140.526 455.822 140.431C455.917 140.337 455.97 140.209 455.97 140.075V61.1984C455.97 60.9205 455.745 60.6949 455.466 60.6949H346.436C346.157 60.6949 345.932 60.9205 345.932 61.1984V140.075C345.932 140.354 346.157 140.579 346.436 140.579ZM454.961 139.572H346.941V61.7019H454.961V139.572Z" fill="#D8D3DA"/>
<path d="M343.85 137.487V142.65H349.023V137.487H343.85Z" fill="white"/>
<path fill-rule="evenodd" clip-rule="evenodd" d="M343.85 143.153H349.023C349.302 143.153 349.528 142.928 349.528 142.65V137.487C349.528 137.209 349.302 136.984 349.023 136.984H343.85C343.571 136.984 343.345 137.209 343.345 137.487V142.65C343.345 142.928 343.571 143.153 343.85 143.153ZM348.519 142.146H344.354V137.991H348.519V142.146Z" fill="#D8D3DA"/>
<path d="M343.85 58.8422V64.0044H349.023V58.8422H343.85Z" fill="white"/>
<path fill-rule="evenodd" clip-rule="evenodd" d="M343.85 64.5112H349.023C349.302 64.5095 349.528 64.285 349.528 64.0077V58.8455C349.528 58.5676 349.302 58.342 349.023 58.342H343.85C343.571 58.342 343.345 58.5676 343.345 58.8455V64.0077C343.345 64.2857 343.571 64.5112 343.85 64.5112ZM348.519 63.5043H344.354V59.3523H348.519V63.5043Z" fill="#D8D3DA"/>
<path d="M343.85 92.1583V97.3206H349.023V92.1583H343.85Z" fill="white"/>
<path fill-rule="evenodd" clip-rule="evenodd" d="M343.85 97.8274H349.023C349.302 97.8257 349.528 97.6012 349.528 97.3239V92.1617C349.528 91.8838 349.302 91.6582 349.023 91.6582H343.85C343.571 91.6582 343.345 91.8838 343.345 92.1617V97.3239C343.345 97.6022 343.571 97.8274 343.85 97.8274ZM348.519 96.8204H344.354V92.6651H348.519V96.8204Z" fill="#D8D3DA"/>
<path d="M398.427 58.8824V64.0447H403.6V58.8824H398.427Z" fill="white"/>
<path fill-rule="evenodd" clip-rule="evenodd" d="M398.427 64.5481H403.6C403.876 64.5481 404.101 64.3269 404.105 64.0513V58.8824C404.105 58.6045 403.879 58.3789 403.6 58.3789H398.427C398.147 58.3789 397.922 58.6045 397.922 58.8824V64.0446C397.922 64.3229 398.147 64.5481 398.427 64.5481ZM403.096 63.5411H398.931V59.3858H403.096V63.5411Z" fill="#D8D3DA"/>
<path d="M398.427 137.487V142.65H403.6V137.487H398.427Z" fill="white"/>
<path fill-rule="evenodd" clip-rule="evenodd" d="M398.427 143.153H403.6C403.879 143.153 404.105 142.928 404.105 142.65V137.487C404.105 137.209 403.879 136.984 403.6 136.984H398.427C398.147 136.984 397.922 137.209 397.922 137.487V142.65C397.922 142.928 398.147 143.153 398.427 143.153ZM403.096 142.146H398.931V137.991H403.096V142.146Z" fill="#D8D3DA"/>
<path d="M452.879 137.487V142.65H458.053V137.487H452.879Z" fill="white"/>
<path fill-rule="evenodd" clip-rule="evenodd" d="M452.879 143.153H458.053C458.332 143.153 458.557 142.928 458.557 142.65V137.487C458.557 137.209 458.332 136.984 458.053 136.984H452.879C452.6 136.984 452.375 137.209 452.375 137.487V142.65C452.375 142.928 452.6 143.153 452.879 143.153ZM457.548 142.146H453.384V137.991H457.548V142.146Z" fill="#D8D3DA"/>
<path d="M452.883 58.8456V64.0078H458.056V58.8456H452.883Z" fill="white"/>
<path fill-rule="evenodd" clip-rule="evenodd" d="M452.879 64.5079H458.053C458.332 64.5079 458.557 64.2823 458.557 64.0044V58.8455C458.557 58.5676 458.332 58.342 458.053 58.342H452.879C452.6 58.342 452.375 58.5676 452.375 58.8455V64.0044C452.375 64.2823 452.6 64.5079 452.879 64.5079ZM457.548 63.5009H453.384V59.3523H457.548V63.5009Z" fill="#D8D3DA"/>
<path d="M452.883 92.1584V97.3207H458.056V92.1584H452.883Z" fill="white"/>
<path fill-rule="evenodd" clip-rule="evenodd" d="M452.879 97.8241H458.053C458.332 97.8241 458.557 97.5985 458.557 97.3206V92.1584C458.557 91.8805 458.332 91.6549 458.053 91.6549H452.879C452.6 91.6549 452.375 91.8805 452.375 92.1584V97.3206C452.375 97.5985 452.6 97.8241 452.879 97.8241ZM457.548 96.8171H453.384V92.6618H457.548V96.8171Z" fill="#D8D3DA"/>
<path d="M439.545 70.9623H362.357C361.759 70.9623 361.274 71.4462 361.274 72.0431V91.0776C361.274 91.6745 361.759 92.1584 362.357 92.1584H439.545C440.143 92.1584 440.628 91.6745 440.628 91.0776V72.0431C440.628 71.4462 440.143 70.9623 439.545 70.9623Z" fill="white"/>
<path fill-rule="evenodd" clip-rule="evenodd" d="M362.357 92.6652H439.545C440.423 92.6635 441.133 91.9533 441.133 91.0776V72.0431C441.133 71.1691 440.423 70.4609 439.545 70.4589H362.357C361.479 70.4589 360.769 71.1681 360.769 72.0431V91.0776C360.769 91.4985 360.934 91.9023 361.234 92.2C361.533 92.4981 361.937 92.6652 362.357 92.6652ZM361.779 72.0431C361.779 71.7242 362.038 71.4658 362.357 71.4658H439.545C439.865 71.4658 440.124 71.7242 440.124 72.0431V91.0776C440.124 91.3971 439.865 91.6566 439.545 91.6583H362.357C362.038 91.6566 361.779 91.3971 361.779 91.0776V72.0431Z" fill="#D8D3DA"/>
<path d="M440.083 92.0476C440.056 92.051 440.026 92.051 439.999 92.0476L361.395 71.7444C361.271 71.7226 361.17 71.6326 361.133 71.5118C361.096 71.3913 361.129 71.26 361.22 71.1721C361.311 71.0845 361.446 71.0553 361.563 71.0966L440.167 91.3998C440.352 91.423 440.487 91.5921 440.463 91.7774C440.44 91.9627 440.268 92.0943 440.083 92.0711V92.0476Z" fill="#D8D3DA"/>
<path d="M424.617 75.5774C424.459 75.5821 424.317 75.4757 424.28 75.3223C424.237 75.1428 424.348 74.9608 424.526 74.9162L439.999 71.0865C440.178 71.0418 440.359 71.1499 440.406 71.3281C440.43 71.4151 440.417 71.507 440.369 71.5839C440.322 71.6611 440.248 71.7161 440.161 71.7376L424.688 75.5673L424.617 75.5774Z" fill="#D8D3DA"/>
<path d="M361.489 92.0476C361.304 92.0708 361.136 91.9392 361.113 91.7539C361.089 91.5686 361.22 91.3995 361.405 91.3763L421.687 75.6647C421.862 75.6301 422.033 75.7365 422.077 75.9081C422.124 76.0796 422.027 76.2568 421.859 76.3125L361.573 92.0241C361.546 92.0355 361.52 92.0432 361.489 92.0476Z" fill="#D8D3DA"/>
<path d="M439.723 100.63H362.179C361.679 100.63 361.274 101.034 361.274 101.533V107.766C361.274 108.265 361.679 108.669 362.179 108.669H439.723C440.223 108.669 440.628 108.265 440.628 107.766V101.533C440.628 101.034 440.223 100.63 439.723 100.63Z" fill="white"/>
<path fill-rule="evenodd" clip-rule="evenodd" d="M362.162 109.172H439.723C440.497 109.165 441.119 108.54 441.119 107.769V101.533C441.119 100.757 440.487 100.129 439.71 100.127H362.162C361.385 100.129 360.756 100.758 360.756 101.533V107.769C360.756 108.544 361.385 109.172 362.162 109.172ZM361.779 101.516C361.779 101.297 361.957 101.119 362.175 101.117H439.723C439.945 101.117 440.124 101.296 440.124 101.516V107.752C440.124 107.858 440.083 107.959 440.006 108.034C439.932 108.108 439.831 108.15 439.723 108.149H362.175C361.957 108.149 361.779 107.971 361.779 107.752V101.516Z" fill="#D8D3DA"/>
<path d="M439.723 115.187H362.179C361.679 115.187 361.274 115.591 361.274 116.09V122.323C361.274 122.822 361.679 123.226 362.179 123.226H439.723C440.223 123.226 440.628 122.822 440.628 122.323V116.09C440.628 115.591 440.223 115.187 439.723 115.187Z" fill="white"/>
<path fill-rule="evenodd" clip-rule="evenodd" d="M362.162 123.726H439.723C440.5 123.719 441.123 123.087 441.119 122.313V116.077C441.119 115.301 440.487 114.672 439.71 114.67H362.162C361.385 114.672 360.756 115.301 360.756 116.077V122.323C360.756 123.098 361.385 123.726 362.162 123.726ZM361.779 116.07C361.779 115.851 361.957 115.672 362.175 115.67L439.723 115.677C439.945 115.677 440.124 115.856 440.124 116.077V122.306C440.124 122.412 440.083 122.513 440.006 122.587C439.932 122.662 439.831 122.703 439.723 122.702H362.175C361.957 122.702 361.779 122.525 361.779 122.306V116.07Z" fill="#D8D3DA"/>
<path d="M238.745 67.0191H216.595C216.316 67.0191 216.09 66.7935 216.09 66.5156V52.9756C216.09 52.6977 216.316 52.4722 216.595 52.4722H238.752C239.03 52.4722 239.257 52.6977 239.257 52.9756V57.4062C239.257 57.6841 239.03 57.9096 238.752 57.9096C238.473 57.9096 238.247 57.6841 238.247 57.4062V53.4791H217.093V66.0121H238.241V60.7425C238.241 60.4646 238.467 60.239 238.745 60.239C239.024 60.239 239.25 60.4646 239.25 60.7425V66.5156C239.25 66.7935 239.024 67.0191 238.745 67.0191Z" fill="#D8D3DA"/>
<path d="M243.468 53.4791H205.494C205.216 53.4791 204.99 53.2536 204.99 52.9756C204.99 52.6977 205.216 52.4722 205.494 52.4722H243.468C243.746 52.4722 243.972 52.6977 243.972 52.9756C243.972 53.2536 243.746 53.4791 243.468 53.4791Z" fill="#D8D3DA"/>
<path fill-rule="evenodd" clip-rule="evenodd" d="M227.665 80.5591H249.822C249.957 80.5591 250.086 80.5051 250.181 80.4094C250.276 80.3134 250.328 80.1835 250.327 80.0489V66.509C250.327 66.231 250.101 66.0055 249.822 66.0055H227.665C227.386 66.0055 227.16 66.231 227.16 66.509V80.0556C227.16 80.3339 227.386 80.5591 227.665 80.5591ZM249.317 79.5522H228.17V67.0191H249.317V79.5522Z" fill="#D8D3DA"/>
<path fill-rule="evenodd" clip-rule="evenodd" d="M205.494 80.5591H227.665C227.941 80.5517 228.16 80.3245 228.156 80.0489V66.509C228.156 66.231 227.93 66.0055 227.652 66.0055H205.494C205.216 66.0055 204.99 66.231 204.99 66.509V80.0556C204.99 80.3339 205.216 80.5591 205.494 80.5591ZM227.16 79.5522H206.013V67.0191H227.16V79.5522Z" fill="#D8D3DA"/>
<path d="M255.318 67.0191H179.866C179.587 67.0191 179.361 66.7939 179.361 66.5157C179.361 66.2378 179.587 66.0122 179.866 66.0122H255.318C255.597 66.0122 255.823 66.2378 255.823 66.5157C255.823 66.7939 255.597 67.0191 255.318 67.0191Z" fill="#D8D3DA"/>
<path d="M264.882 80.5592H194.915C194.637 80.5592 194.411 80.3336 194.411 80.0557C194.411 79.7778 194.637 79.5522 194.915 79.5522H264.882C265.16 79.5522 265.386 79.7778 265.386 80.0557C265.386 80.3336 265.16 80.5592 264.882 80.5592Z" fill="#D8D3DA"/>
<path fill-rule="evenodd" clip-rule="evenodd" d="M216.595 94.0991H238.745C238.88 94.1008 239.01 94.0488 239.106 93.9542C239.202 93.8595 239.257 93.7303 239.257 93.5957V80.0557C239.257 79.7778 239.03 79.5522 238.752 79.5522H216.595C216.316 79.5522 216.09 79.7778 216.09 80.0557V93.5957C216.09 93.8736 216.316 94.0991 216.595 94.0991ZM238.241 93.0922H217.093V80.5592H238.241V93.0922Z" fill="#D8D3DA"/>
<path d="M241.52 94.099H206.938C206.659 94.099 206.433 93.8734 206.433 93.5955C206.433 93.3176 206.659 93.092 206.938 93.092H241.52C241.799 93.092 242.025 93.3176 242.025 93.5955C242.025 93.8734 241.799 94.099 241.52 94.099Z" fill="#D8D3DA"/>
<path d="M359.384 184.808H337.233C336.954 184.808 336.729 184.583 336.729 184.304V170.764C336.729 170.486 336.954 170.261 337.233 170.261H359.39C359.669 170.261 359.895 170.486 359.895 170.764V175.195C359.895 175.473 359.669 175.698 359.39 175.698C359.111 175.698 358.886 175.473 358.886 175.195V171.268H337.731V183.801H358.879V178.531C358.879 178.253 359.104 178.028 359.384 178.028C359.663 178.028 359.888 178.253 359.888 178.531V184.304C359.888 184.583 359.663 184.808 359.384 184.808Z" fill="#D8D3DA"/>
<path d="M364.106 171.268H326.133C325.855 171.268 325.629 171.043 325.629 170.764C325.629 170.486 325.855 170.261 326.133 170.261H364.106C364.385 170.261 364.611 170.486 364.611 170.764C364.611 171.043 364.385 171.268 364.106 171.268Z" fill="#D8D3DA"/>
<path fill-rule="evenodd" clip-rule="evenodd" d="M348.303 198.348H370.46C370.595 198.348 370.726 198.294 370.82 198.198C370.914 198.102 370.968 197.973 370.965 197.838V184.298C370.965 184.02 370.74 183.794 370.46 183.794H348.303C348.024 183.794 347.799 184.02 347.799 184.298V197.844C347.799 198.123 348.024 198.348 348.303 198.348ZM369.956 197.341H348.808V184.808H369.956V197.341Z" fill="#D8D3DA"/>
<path fill-rule="evenodd" clip-rule="evenodd" d="M326.133 198.348H348.303C348.579 198.341 348.798 198.113 348.794 197.838V184.298C348.794 184.02 348.569 183.794 348.29 183.794H326.133C325.855 183.794 325.629 184.02 325.629 184.298V197.844C325.629 198.123 325.855 198.348 326.133 198.348ZM347.799 197.341H326.651V184.808H347.799V197.341Z" fill="#D8D3DA"/>
<path d="M375.957 184.808H300.505C300.226 184.808 300 184.583 300 184.305C300 184.026 300.226 183.801 300.505 183.801H375.957C376.236 183.801 376.461 184.026 376.461 184.305C376.461 184.583 376.236 184.808 375.957 184.808Z" fill="#D8D3DA"/>
<path d="M385.52 198.348H315.554C315.276 198.348 315.05 198.123 315.05 197.844C315.05 197.566 315.276 197.341 315.554 197.341H385.52C385.799 197.341 386.025 197.566 386.025 197.844C386.025 198.123 385.799 198.348 385.52 198.348Z" fill="#D8D3DA"/>
<path fill-rule="evenodd" clip-rule="evenodd" d="M337.233 211.888H359.384C359.518 211.89 359.649 211.837 359.743 211.743C359.841 211.648 359.895 211.519 359.895 211.384V197.844C359.895 197.566 359.669 197.341 359.39 197.341H337.233C336.954 197.341 336.729 197.566 336.729 197.844V211.384C336.729 211.663 336.954 211.888 337.233 211.888ZM358.879 210.881H337.731V198.348H358.879V210.881Z" fill="#D8D3DA"/>
<path d="M362.159 211.888H327.576C327.298 211.888 327.072 211.663 327.072 211.384C327.072 211.106 327.298 210.881 327.576 210.881H362.159C362.438 210.881 362.663 211.106 362.663 211.384C362.663 211.663 362.438 211.888 362.159 211.888Z" fill="#D8D3DA"/>
<path d="M83.8924 328.464H61.7421C61.4635 328.464 61.2375 328.239 61.2375 327.961V314.421C61.2375 314.143 61.4635 313.917 61.7421 313.917H83.8991C84.1776 313.917 84.4037 314.143 84.4037 314.421V318.851C84.4037 319.13 84.1776 319.355 83.8991 319.355C83.6206 319.355 83.3945 319.13 83.3945 318.851V314.924H62.2399V327.457H83.3878V322.188C83.3878 321.91 83.6139 321.684 83.8924 321.684C84.1709 321.684 84.3969 321.91 84.3969 322.188V327.961C84.3969 328.239 84.1709 328.464 83.8924 328.464Z" fill="#D8D3DA"/>
<path d="M88.6151 314.924H50.6416C50.3631 314.924 50.1371 314.699 50.1371 314.421C50.1371 314.143 50.3631 313.917 50.6416 313.917H88.6151C88.8936 313.917 89.1196 314.143 89.1196 314.421C89.1196 314.699 88.8936 314.924 88.6151 314.924Z" fill="#D8D3DA"/>
<path fill-rule="evenodd" clip-rule="evenodd" d="M72.8122 342.003H94.9693C95.1041 342.003 95.2336 341.95 95.3285 341.856C95.4234 341.758 95.4755 341.627 95.4738 341.493V327.954C95.4738 327.676 95.2478 327.451 94.9693 327.451H72.8122C72.5337 327.451 72.3076 327.676 72.3076 327.954V341.5C72.3076 341.778 72.5337 342.003 72.8122 342.003ZM94.4647 340.996H73.3168V328.464H94.4647V340.996Z" fill="#D8D3DA"/>
<path fill-rule="evenodd" clip-rule="evenodd" d="M50.6416 342.003H72.8122C73.0883 341.997 73.307 341.768 73.3033 341.493V327.954C73.3033 327.676 73.0772 327.451 72.7987 327.451H50.6416C50.3631 327.451 50.1371 327.676 50.1371 327.954V341.5C50.1371 341.778 50.3631 342.003 50.6416 342.003ZM72.3076 340.996H51.1597V328.464H72.3076V340.996Z" fill="#D8D3DA"/>
<path d="M100.466 328.465H25.0132C24.7346 328.465 24.5087 328.239 24.5087 327.961C24.5087 327.683 24.7346 327.458 25.0132 327.458H100.466C100.744 327.458 100.97 327.683 100.97 327.961C100.97 328.239 100.744 328.465 100.466 328.465Z" fill="#D8D3DA"/>
<path d="M110.029 342.003H40.0627C39.7841 342.003 39.5581 341.778 39.5581 341.5C39.5581 341.221 39.7841 340.996 40.0627 340.996H110.029C110.308 340.996 110.533 341.221 110.533 341.5C110.533 341.778 110.308 342.003 110.029 342.003Z" fill="#D8D3DA"/>
<path fill-rule="evenodd" clip-rule="evenodd" d="M61.7421 355.543H83.8924C84.0273 355.547 84.1574 355.493 84.2536 355.399C84.3495 355.305 84.4037 355.174 84.4037 355.04V341.5C84.4037 341.221 84.1776 340.996 83.8991 340.996H61.7421C61.4635 340.996 61.2375 341.221 61.2375 341.5V355.04C61.2375 355.318 61.4635 355.543 61.7421 355.543ZM83.3878 354.536H62.2399V342.003H83.3878V354.536Z" fill="#D8D3DA"/>
<path d="M86.6675 355.543H52.0847C51.8062 355.543 51.5801 355.318 51.5801 355.04C51.5801 354.765 51.8062 354.536 52.0847 354.536H86.6675C86.946 354.536 87.172 354.765 87.172 355.04C87.172 355.318 86.946 355.543 86.6675 355.543Z" fill="#D8D3DA"/>
<path d="M463.132 240.012H343.628V324.74H463.132V240.012Z" fill="white"/>
<path fill-rule="evenodd" clip-rule="evenodd" d="M343.624 325.411H463.128C463.502 325.411 463.801 325.11 463.801 324.74V240.013C463.801 239.642 463.502 239.341 463.128 239.341H343.624C343.254 239.341 342.952 239.642 342.952 240.013V324.74C342.952 325.11 343.254 325.411 343.624 325.411ZM462.456 324.068H344.297V240.684H462.456V324.068Z" fill="#372168"/>
<path fill-rule="evenodd" clip-rule="evenodd" d="M377.766 282.385L395.12 260.853C395.268 260.67 395.493 260.565 395.732 260.569C395.968 260.573 396.19 260.685 396.331 260.873L422.504 295.659C422.642 295.839 422.851 295.945 423.076 295.949C423.302 295.953 423.517 295.854 423.658 295.679L438.122 277.716C438.27 277.53 438.492 277.422 438.728 277.422C438.963 277.422 439.189 277.53 439.333 277.716L463.105 309.293V324.733H343.624L373.898 287.188" fill="#FFC28F"/>
<path d="M463.128 325.411H343.624C343.365 325.409 343.133 325.261 343.022 325.028C342.911 324.796 342.942 324.521 343.103 324.32L373.377 286.775C373.525 286.576 373.767 286.474 374.013 286.509C374.258 286.544 374.463 286.71 374.547 286.941C374.635 287.172 374.588 287.432 374.423 287.617L345.044 324.068H462.469V309.535L438.832 278.138C438.815 278.114 438.788 278.1 438.758 278.101C438.731 278.1 438.701 278.113 438.684 278.135L424.22 296.099C423.954 296.43 423.554 296.622 423.127 296.622H423.103C422.669 296.615 422.262 296.408 422.003 296.062L395.816 261.276C395.8 261.253 395.773 261.24 395.742 261.239C395.712 261.237 395.685 261.251 395.668 261.276L378.315 282.804C378.079 283.079 377.666 283.118 377.383 282.892C377.1 282.665 377.047 282.254 377.265 281.965L394.585 260.45C394.864 260.104 395.288 259.905 395.732 259.913C396.176 259.92 396.593 260.132 396.859 260.487L423.046 295.273C423.056 295.287 423.073 295.296 423.09 295.297C423.107 295.295 423.123 295.286 423.137 295.273L437.601 277.309C437.883 276.966 438.304 276.77 438.748 276.776C439.192 276.781 439.609 276.991 439.875 277.346L463.646 308.924C463.734 309.04 463.781 309.181 463.781 309.327V324.766C463.768 325.119 463.482 325.4 463.128 325.411Z" fill="#372168"/>
<path d="M341.202 322.323V327.16H346.05V322.323H341.202Z" fill="white"/>
<path fill-rule="evenodd" clip-rule="evenodd" d="M341.202 327.831H346.05C346.423 327.831 346.722 327.53 346.722 327.16V322.323C346.722 321.952 346.423 321.652 346.05 321.652H341.202C340.832 321.652 340.53 321.952 340.53 322.323V327.16C340.53 327.53 340.832 327.831 341.202 327.831ZM345.377 326.488H341.875V322.994H345.377V326.488Z" fill="#372168"/>
<path d="M341.202 237.593V242.429H346.05V237.593H341.202Z" fill="white"/>
<path fill-rule="evenodd" clip-rule="evenodd" d="M341.202 243.1H346.05C346.423 243.1 346.722 242.8 346.722 242.429V237.592C346.722 237.222 346.423 236.921 346.05 236.921H341.202C340.832 236.921 340.53 237.222 340.53 237.592V242.429C340.53 242.8 340.832 243.1 341.202 243.1ZM345.377 241.758H341.875V238.263H345.377V241.758Z" fill="#372168"/>
<path d="M341.202 279.857V284.694H346.05V279.857H341.202Z" fill="white"/>
<path fill-rule="evenodd" clip-rule="evenodd" d="M341.202 285.365H346.05C346.423 285.365 346.722 285.064 346.722 284.694V279.857C346.722 279.486 346.423 279.186 346.05 279.186H341.202C340.832 279.186 340.53 279.486 340.53 279.857V284.694C340.53 285.064 340.832 285.365 341.202 285.365ZM345.377 284.022H341.875V280.528H345.377V284.022Z" fill="#372168"/>
<path d="M400.99 237.593V242.429H405.837V237.593H400.99Z" fill="white"/>
<path fill-rule="evenodd" clip-rule="evenodd" d="M400.993 243.1H405.837C406.21 243.1 406.51 242.8 406.51 242.429V237.592C406.51 237.222 406.21 236.921 405.837 236.921H400.993C400.623 236.921 400.32 237.222 400.32 237.592V242.429C400.32 242.8 400.623 243.1 400.993 243.1ZM405.164 241.758H401.666V238.263H405.164V241.758Z" fill="#372168"/>
<path d="M400.993 322.32V327.156H405.84V322.32H400.993Z" fill="white"/>
<path fill-rule="evenodd" clip-rule="evenodd" d="M400.993 327.831H405.837C406.21 327.831 406.51 327.53 406.51 327.16V322.323C406.51 321.952 406.21 321.652 405.837 321.652H400.993C400.623 321.652 400.32 321.952 400.32 322.323V327.16C400.32 327.53 400.623 327.831 400.993 327.831ZM405.164 326.488H401.666V322.994H405.164V326.488Z" fill="#372168"/>
<path d="M460.707 322.222V327.059H465.554V322.222H460.707Z" fill="white"/>
<path fill-rule="evenodd" clip-rule="evenodd" d="M460.713 327.73H465.561C465.742 327.73 465.914 327.657 466.042 327.529C466.169 327.4 466.237 327.226 466.233 327.046V322.209C466.233 321.838 465.934 321.538 465.561 321.538H460.713C460.343 321.538 460.041 321.838 460.041 322.209V327.059C460.041 327.43 460.343 327.73 460.713 327.73ZM464.888 326.388H461.386V322.88H464.888V326.388Z" fill="#372168"/>
<path d="M460.707 237.492V242.328H465.554V237.492H460.707Z" fill="white"/>
<path fill-rule="evenodd" clip-rule="evenodd" d="M460.713 242.996H465.561C465.934 242.996 466.233 242.696 466.233 242.325V237.492C466.233 237.121 465.934 236.821 465.561 236.821H460.713C460.343 236.821 460.041 237.121 460.041 237.492V242.325C460.041 242.696 460.343 242.996 460.713 242.996ZM464.888 241.654H461.386V238.163H464.888V241.654Z" fill="#372168"/>
<path d="M460.707 279.756V284.593H465.554V279.756H460.707Z" fill="white"/>
<path fill-rule="evenodd" clip-rule="evenodd" d="M460.713 285.264H465.561C465.934 285.264 466.233 284.963 466.233 284.593V279.756C466.233 279.385 465.934 279.085 465.561 279.085H460.713C460.343 279.085 460.041 279.385 460.041 279.756V284.593C460.041 284.963 460.343 285.264 460.713 285.264ZM464.888 283.922H461.386V280.428H464.888V283.922Z" fill="#372168"/>
<path d="M403.378 237.737C403.008 237.737 402.705 237.436 402.705 237.066V211.926C402.705 211.555 403.008 211.254 403.378 211.254C403.751 211.254 404.051 211.555 404.051 211.926V237.066C404.051 237.436 403.751 237.737 403.378 237.737Z" fill="#372168"/>
<path d="M403.415 211.399C404.774 211.399 405.874 210.3 405.874 208.945C405.874 207.59 404.774 206.491 403.415 206.491C402.056 206.491 400.956 207.59 400.956 208.945C400.956 210.3 402.056 211.399 403.415 211.399Z" fill="white"/>
<path fill-rule="evenodd" clip-rule="evenodd" d="M400.283 208.945C400.283 210.671 401.686 212.07 403.415 212.07C405.144 212.066 406.543 210.669 406.547 208.945C406.547 207.219 405.144 205.82 403.415 205.82C401.686 205.82 400.283 207.219 400.283 208.945ZM401.767 208.263C402.043 207.597 402.692 207.163 403.415 207.163C404.401 207.163 405.201 207.961 405.201 208.945C405.201 209.666 404.767 210.316 404.098 210.592C403.432 210.867 402.665 210.715 402.154 210.205C401.642 209.696 401.488 208.929 401.767 208.263Z" fill="#372168"/>
<path d="M424.139 271.043C429.39 271.043 433.649 266.795 433.649 261.554C433.649 256.314 429.39 252.065 424.139 252.065C418.888 252.065 414.63 256.314 414.63 261.554C414.63 266.795 418.888 271.043 424.139 271.043Z" fill="white"/>
<path fill-rule="evenodd" clip-rule="evenodd" d="M414.731 265.44C416.305 269.237 420.022 271.712 424.139 271.711C429.757 271.703 434.311 267.16 434.318 261.554C434.321 257.444 431.839 253.738 428.034 252.165C424.23 250.592 419.85 251.461 416.937 254.367C414.024 257.273 413.153 261.644 414.731 265.44ZM415.972 258.177C417.341 254.883 420.564 252.735 424.139 252.737V252.73C429.02 252.736 432.972 256.685 432.972 261.554C432.972 265.121 430.82 268.336 427.516 269.701C424.213 271.065 420.412 270.31 417.886 267.788C415.36 265.265 414.603 261.472 415.972 258.177Z" fill="#372168"/>
<path d="M397.401 300.862C397.303 300.862 397.209 300.819 397.145 300.744L392.5 295.293C392.379 295.152 392.395 294.941 392.537 294.82C392.678 294.7 392.89 294.716 393.011 294.857L397.656 300.311C397.74 300.411 397.757 300.549 397.703 300.667C397.65 300.785 397.532 300.86 397.401 300.862Z" fill="#372168"/>
<path d="M397.108 296.945C397.011 296.945 396.916 296.902 396.852 296.827L395.709 295.485C395.652 295.417 395.621 295.329 395.628 295.24C395.635 295.151 395.678 295.069 395.746 295.011C395.813 294.954 395.904 294.926 395.991 294.933C396.082 294.941 396.163 294.984 396.22 295.052L397.364 296.394C397.448 296.494 397.468 296.634 397.414 296.753C397.36 296.872 397.239 296.948 397.108 296.948V296.945Z" fill="#372168"/>
<path d="M394.289 300.785C394.192 300.785 394.098 300.742 394.034 300.667L391.551 297.754C391.464 297.664 391.43 297.532 391.47 297.412C391.511 297.292 391.612 297.204 391.74 297.185C391.864 297.166 391.988 297.218 392.062 297.321L394.545 300.231C394.629 300.33 394.649 300.47 394.595 300.589C394.542 300.708 394.42 300.785 394.289 300.785Z" fill="#372168"/>
<path d="M168.342 52.1849H47.9668V221.23H168.342V52.1849Z" fill="white"/>
<path fill-rule="evenodd" clip-rule="evenodd" d="M47.9567 221.901H168.342C168.71 221.895 169.005 221.597 169.005 221.23V52.185C169.005 51.8141 168.703 51.5137 168.332 51.5137H47.9567C47.5851 51.5137 47.284 51.8141 47.284 52.185V221.23C47.284 221.6 47.5851 221.901 47.9567 221.901ZM167.669 220.558H48.6396L48.6295 52.8563H167.669V220.558Z" fill="#372168"/>
<path d="M107.303 65.4967H58.566C57.9232 65.4967 57.4021 66.0166 57.4021 66.658V115.29C57.4021 115.931 57.9232 116.451 58.566 116.451H107.303C107.946 116.451 108.467 115.931 108.467 115.29V66.658C108.467 66.0166 107.946 65.4967 107.303 65.4967Z" fill="#FFB3C4"/>
<path fill-rule="evenodd" clip-rule="evenodd" d="M58.5626 117.116H107.303C108.317 117.114 109.138 116.294 109.14 115.283V66.6479C109.138 65.6366 108.317 64.817 107.303 64.8153H58.5626C57.5495 64.817 56.7294 65.637 56.7294 66.6479V115.283C56.7294 116.294 57.5495 117.114 58.5626 117.116ZM58.0749 66.6479C58.0749 66.3787 58.2925 66.1596 58.5626 66.1579H107.303C107.575 66.1579 107.795 66.3774 107.795 66.6479V115.283C107.795 115.554 107.575 115.773 107.303 115.773H58.5626C58.2925 115.771 58.0749 115.552 58.0749 115.283V66.6479Z" fill="#372168"/>
<path d="M108.252 116.572C108.163 116.572 108.076 116.537 108.013 116.475L57.4761 66.0471C57.3456 65.9162 57.3456 65.7047 57.4761 65.5738C57.539 65.5104 57.6251 65.4745 57.7149 65.4745C57.8044 65.4745 57.8905 65.5104 57.9538 65.5738L108.504 116.001C108.598 116.097 108.626 116.24 108.575 116.364C108.524 116.488 108.403 116.57 108.269 116.572H108.252Z" fill="#372168"/>
<path d="M97.1079 77.1738C97.0191 77.1724 96.9343 77.1362 96.8725 77.0731C96.7419 76.9422 96.7419 76.7307 96.8725 76.5998L107.916 65.5806C108.047 65.4504 108.259 65.4504 108.39 65.5806C108.52 65.7115 108.52 65.9229 108.39 66.0538L97.3467 77.0731C97.2838 77.1372 97.1977 77.1735 97.1079 77.1738Z" fill="#372168"/>
<path d="M57.6174 116.572C57.5279 116.573 57.4418 116.537 57.3786 116.475C57.2481 116.344 57.2481 116.132 57.3786 116.001L94.1949 79.2649C94.277 79.1692 94.4061 79.1272 94.5289 79.1568C94.6517 79.1863 94.7479 79.282 94.7772 79.4048C94.8068 79.5273 94.765 79.6562 94.6692 79.7381L57.8562 116.475C57.7927 116.537 57.7066 116.573 57.6174 116.572Z" fill="#372168"/>
<path d="M158.752 65.4967H118.047C117.531 65.4967 117.112 65.9145 117.112 66.4298V72.8306C117.112 73.3459 117.531 73.7637 118.047 73.7637H158.752C159.269 73.7637 159.687 73.3459 159.687 72.8306V66.4298C159.687 65.9145 159.269 65.4967 158.752 65.4967Z" fill="white"/>
<path fill-rule="evenodd" clip-rule="evenodd" d="M118.051 74.4349H158.752C159.639 74.4329 160.358 73.7159 160.36 72.8305V66.4331C160.36 65.5463 159.64 64.8273 158.752 64.8253H118.051C117.162 64.8273 116.443 65.5463 116.443 66.4331V72.8305C116.444 73.7159 117.163 74.4329 118.051 74.4349ZM117.864 66.2458C117.913 66.1961 117.98 66.1679 118.051 66.1679H158.752C158.822 66.1679 158.889 66.1961 158.939 66.2458C158.988 66.2954 159.015 66.3629 159.014 66.4331V72.8305C159.014 72.9 158.987 72.9664 158.937 73.0158C158.888 73.0648 158.822 73.0923 158.752 73.0923H118.051C117.906 73.0923 117.788 72.9751 117.788 72.8305V66.4331C117.787 66.3629 117.815 66.2954 117.864 66.2458Z" fill="#372168"/>
<path d="M158.752 79.5032H118.047C117.531 79.5032 117.112 79.9209 117.112 80.4363V86.837C117.112 87.3524 117.531 87.7701 118.047 87.7701H158.752C159.269 87.7701 159.687 87.3524 159.687 86.837V80.4363C159.687 79.9209 159.269 79.5032 158.752 79.5032Z" fill="white"/>
<path fill-rule="evenodd" clip-rule="evenodd" d="M118.051 88.4381H158.752C159.64 88.4381 160.36 87.7198 160.36 86.8337V80.4363C160.36 79.5502 159.64 78.8319 158.752 78.8319H118.051C117.163 78.8319 116.443 79.5502 116.443 80.4363V86.8337C116.443 87.7198 117.163 88.4381 118.051 88.4381ZM117.788 80.4363C117.788 80.2916 117.906 80.1745 118.051 80.1745H158.752C158.897 80.1745 159.014 80.2916 159.014 80.4363V86.8337C159.014 86.9032 158.987 86.9696 158.937 87.019C158.888 87.068 158.822 87.0955 158.752 87.0955H118.051C117.981 87.0955 117.914 87.068 117.865 87.019C117.816 86.9696 117.788 86.9032 117.788 86.8337V80.4363Z" fill="#372168"/>
<path fill-rule="evenodd" clip-rule="evenodd" d="M138.401 116.454C145.048 116.454 150.437 111.078 150.437 104.445C150.437 97.8123 145.048 92.4355 138.401 92.4355C131.754 92.4355 126.366 97.8123 126.366 104.445C126.366 111.078 131.754 116.454 138.401 116.454Z" fill="#FFC28F"/>
<path fill-rule="evenodd" clip-rule="evenodd" d="M126.655 109.288C128.623 114.027 133.26 117.117 138.401 117.116C145.417 117.106 151.102 111.432 151.11 104.432C151.11 99.3009 148.012 94.6757 143.262 92.7125C138.511 90.7496 133.044 91.8355 129.408 95.4638C125.773 99.0921 124.686 104.548 126.655 109.288ZM127.898 100.093C129.658 95.8548 133.803 93.0921 138.401 93.0934V93.1035C144.669 93.1126 149.749 98.1775 149.764 104.432C149.765 109.019 146.997 113.156 142.749 114.912C138.502 116.669 133.612 115.699 130.361 112.455C127.11 109.211 126.137 104.332 127.898 100.093Z" fill="#372168"/>
<path d="M158.268 125.984H58.6703C58.1148 125.984 57.6646 126.433 57.6646 126.987V133.247C57.6646 133.801 58.1148 134.25 58.6703 134.25H158.268C158.823 134.25 159.273 133.801 159.273 133.247V126.987C159.273 126.433 158.823 125.984 158.268 125.984Z" fill="white"/>
<path fill-rule="evenodd" clip-rule="evenodd" d="M58.6703 134.922H158.264C158.71 134.922 159.138 134.745 159.453 134.43C159.769 134.116 159.946 133.689 159.946 133.244V126.987C159.946 126.06 159.193 125.309 158.264 125.309H58.6703C57.7412 125.309 56.9884 126.06 56.9884 126.987V133.244C56.9884 134.17 57.7412 134.922 58.6703 134.922ZM58.3339 126.99C58.3339 126.805 58.4843 126.655 58.6703 126.655H158.264C158.45 126.655 158.601 126.805 158.601 126.99V133.247C158.601 133.432 158.45 133.583 158.264 133.583H58.6703C58.4843 133.583 58.3339 133.432 58.3339 133.247V126.99Z" fill="#372168"/>
<path d="M158.268 143.303H58.6703C58.1148 143.303 57.6646 143.752 57.6646 144.306V150.566C57.6646 151.12 58.1148 151.57 58.6703 151.57H158.268C158.823 151.57 159.273 151.12 159.273 150.566V144.306C159.273 143.752 158.823 143.303 158.268 143.303Z" fill="white"/>
<path fill-rule="evenodd" clip-rule="evenodd" d="M58.6703 152.241H158.264C158.711 152.241 159.139 152.064 159.455 151.748C159.77 151.433 159.947 151.005 159.946 150.559V144.303C159.946 143.376 159.193 142.625 158.264 142.625H58.6703C57.7412 142.625 56.9884 143.376 56.9884 144.303V150.563C56.9884 151.49 57.7412 152.241 58.6703 152.241ZM58.3339 144.303C58.3339 144.117 58.4843 143.967 58.6703 143.967H158.264C158.45 143.967 158.601 144.117 158.601 144.303V150.559C158.601 150.745 158.45 150.895 158.264 150.895H58.6703C58.4843 150.895 58.3339 150.745 58.3339 150.559V144.303Z" fill="#372168"/>
<path fill-rule="evenodd" clip-rule="evenodd" d="M69.7269 184.644C76.374 184.644 81.7624 179.268 81.7624 172.635C81.7624 166.002 76.374 160.625 69.7269 160.625C63.0798 160.625 57.6914 166.002 57.6914 172.635C57.6914 179.268 63.0798 184.644 69.7269 184.644Z" fill="#CFDDFF"/>
<path fill-rule="evenodd" clip-rule="evenodd" d="M57.0153 172.635C57.0153 179.638 62.7047 185.316 69.7235 185.316C76.7383 185.306 82.4224 179.634 82.4318 172.635C82.4318 165.632 76.742 159.954 69.7235 159.954C62.7047 159.954 57.0153 165.632 57.0153 172.635ZM58.3608 172.635C58.3608 166.373 63.4481 161.297 69.7235 161.297C75.9959 161.304 81.0789 166.376 81.0863 172.635C81.0863 178.897 75.999 183.973 69.7235 183.973C63.4481 183.973 58.3608 178.897 58.3608 172.635Z" fill="#372168"/>
<path fill-rule="evenodd" clip-rule="evenodd" d="M156.804 165.382C160.64 170.426 159.897 177.576 155.104 181.727C150.312 185.878 143.114 185.609 138.647 181.111C134.18 176.614 133.975 169.429 138.178 164.685C142.382 159.941 149.553 159.263 154.574 163.136" fill="#CFDDFF"/>
<path d="M147.208 185.316C140.189 185.316 134.499 179.638 134.499 172.635C134.499 165.632 140.189 159.954 147.208 159.954C150.025 159.944 152.765 160.878 154.988 162.606C155.27 162.836 155.316 163.249 155.093 163.536C154.87 163.824 154.458 163.881 154.164 163.666C152.176 162.122 149.727 161.288 147.208 161.297C140.933 161.298 135.847 166.376 135.848 172.637C135.849 178.898 140.937 183.974 147.212 183.973C153.487 183.972 158.574 178.896 158.574 172.635C158.582 170.161 157.771 167.754 156.266 165.788C156.041 165.492 156.099 165.07 156.396 164.846C156.692 164.622 157.114 164.68 157.339 164.975C160.254 168.813 160.739 173.967 158.591 178.279C156.444 182.591 152.033 185.317 147.208 185.316Z" fill="#372168"/>
<path d="M111.226 179.959C111.127 179.958 111.033 179.914 110.97 179.838L106.388 174.467C106.31 174.376 106.287 174.251 106.327 174.137C106.367 174.024 106.464 173.941 106.583 173.919C106.701 173.897 106.821 173.94 106.9 174.031L111.485 179.401C111.57 179.501 111.59 179.642 111.534 179.762C111.478 179.881 111.357 179.957 111.226 179.955V179.959Z" fill="#372168"/>
<path d="M110.94 176.092C110.841 176.092 110.748 176.049 110.684 175.975L109.554 174.632C109.496 174.564 109.467 174.477 109.474 174.388C109.481 174.299 109.523 174.216 109.591 174.159C109.659 174.101 109.747 174.073 109.836 174.081C109.925 174.088 110.008 174.131 110.065 174.199L111.195 175.525C111.28 175.624 111.3 175.764 111.245 175.883C111.19 176.002 111.071 176.079 110.94 176.079V176.092Z" fill="#372168"/>
<path d="M108.168 179.881C108.069 179.881 107.976 179.838 107.912 179.764L105.463 176.887C105.343 176.745 105.362 176.534 105.504 176.414C105.646 176.295 105.858 176.313 105.978 176.454L108.427 179.328C108.513 179.428 108.532 179.569 108.476 179.688C108.42 179.807 108.3 179.883 108.168 179.881Z" fill="#372168"/>
<path d="M51.4012 48.7579H44.5324V55.6118H51.4012V48.7579Z" fill="white"/>
<path fill-rule="evenodd" clip-rule="evenodd" d="M44.5324 56.2831H51.4012C51.7725 56.2831 52.0739 55.9824 52.0739 55.6119V48.758C52.0739 48.3871 51.7725 48.0867 51.4012 48.0867H44.5324C44.1607 48.0867 43.8596 48.3871 43.8596 48.758V55.6119C43.8596 55.9824 44.1607 56.2831 44.5324 56.2831ZM50.7284 54.9406H45.2051V49.4293H50.7284V54.9406Z" fill="#372168"/>
<path d="M171.777 48.7579H164.908V55.6118H171.777V48.7579Z" fill="white"/>
<path fill-rule="evenodd" clip-rule="evenodd" d="M164.908 56.2831H171.777C172.148 56.2831 172.449 55.9824 172.449 55.6119V48.758C172.449 48.3871 172.148 48.0867 171.777 48.0867H164.908C164.536 48.0867 164.235 48.3871 164.235 48.758V55.6119C164.235 55.9824 164.536 56.2831 164.908 56.2831ZM171.104 54.9406H165.58V49.4293H171.104V54.9406Z" fill="#372168"/>
<path d="M111.73 48.7579H104.861V55.6118H111.73V48.7579Z" fill="white"/>
<path fill-rule="evenodd" clip-rule="evenodd" d="M104.861 56.2831H111.733C112.105 56.2831 112.406 55.9824 112.406 55.6119V48.758C112.406 48.3871 112.105 48.0867 111.733 48.0867H104.861C104.49 48.0867 104.189 48.3871 104.189 48.758V55.6119C104.189 55.9824 104.49 56.2831 104.861 56.2831ZM111.061 54.9406H105.534V49.4293H111.061V54.9406Z" fill="#372168"/>
<path d="M171.777 133.331H164.908V140.185H171.777V133.331Z" fill="white"/>
<path fill-rule="evenodd" clip-rule="evenodd" d="M164.908 140.859H171.777C172.148 140.859 172.449 140.559 172.449 140.188V133.331C172.449 132.96 172.148 132.659 171.777 132.659H164.908C164.536 132.659 164.235 132.96 164.235 133.331V140.188C164.235 140.559 164.536 140.859 164.908 140.859ZM171.104 139.517H165.58V134.002H171.104V139.517Z" fill="#372168"/>
<path d="M51.4012 133.331H44.5324V140.185H51.4012V133.331Z" fill="white"/>
<path fill-rule="evenodd" clip-rule="evenodd" d="M44.5324 140.859H51.4012C51.7725 140.859 52.0739 140.559 52.0739 140.188V133.331C52.0739 132.96 51.7725 132.659 51.4012 132.659H44.5324C44.1607 132.659 43.8596 132.96 43.8596 133.331V140.188C43.8596 140.559 44.1607 140.859 44.5324 140.859ZM50.7284 139.517H45.2051V134.002H50.7284V139.517Z" fill="#372168"/>
<path d="M51.5425 217.803H44.6737V224.657H51.5425V217.803Z" fill="white"/>
<path fill-rule="evenodd" clip-rule="evenodd" d="M44.6737 225.328H51.5459C51.9145 225.328 52.2149 225.032 52.2186 224.663V217.809C52.2186 217.439 51.9172 217.138 51.5459 217.138H44.6737C44.302 217.138 44.001 217.439 44.001 217.809V224.657C44.001 225.027 44.302 225.328 44.6737 225.328ZM50.8731 223.985H45.3465V218.481H50.8731V223.985Z" fill="#372168"/>
<path d="M171.918 217.803H165.049V224.657H171.918V217.803Z" fill="white"/>
<path fill-rule="evenodd" clip-rule="evenodd" d="M165.049 225.328H171.918C172.287 225.328 172.587 225.032 172.591 224.663V217.809C172.591 217.439 172.289 217.138 171.918 217.138H165.049C164.677 217.138 164.376 217.439 164.376 217.809V224.657C164.376 225.027 164.677 225.328 165.049 225.328ZM171.245 223.985H165.722V218.481H171.245V223.985Z" fill="#372168"/>
<path d="M111.875 217.803H105.006V224.657H111.875V217.803Z" fill="white"/>
<path fill-rule="evenodd" clip-rule="evenodd" d="M104.999 225.328H111.868C112.237 225.328 112.537 225.032 112.541 224.663V217.809C112.541 217.439 112.239 217.138 111.868 217.138H104.999C104.628 217.138 104.327 217.439 104.327 217.809V224.657C104.327 225.027 104.628 225.328 104.999 225.328ZM111.195 223.985H105.672V218.481H111.195V223.985Z" fill="#372168"/>
<path d="M108.296 49.4293C107.924 49.4293 107.623 49.1289 107.623 48.758V24.1182C107.623 23.7474 107.924 23.4469 108.296 23.4469C108.667 23.4469 108.969 23.7474 108.969 24.1182V48.758C108.969 49.1289 108.667 49.4293 108.296 49.4293Z" fill="#372168"/>
<path d="M108.154 24.1182C109.765 24.1182 111.071 22.8153 111.071 21.2081C111.071 19.601 109.765 18.2981 108.154 18.2981C106.544 18.2981 105.238 19.601 105.238 21.2081C105.238 22.8153 106.544 24.1182 108.154 24.1182Z" fill="white"/>
<path fill-rule="evenodd" clip-rule="evenodd" d="M104.847 22.5789C105.404 23.9183 106.714 24.7909 108.168 24.7895C110.15 24.7858 111.755 23.1825 111.757 21.2048C111.757 19.7546 110.882 18.4473 109.538 17.8926C108.196 17.338 106.65 17.6453 105.623 18.6712C104.596 19.6971 104.289 21.2395 104.847 22.5789ZM106.089 20.3486C106.438 19.5105 107.258 18.9647 108.168 18.966C109.406 18.9679 110.41 19.9691 110.412 21.2048C110.413 22.1122 109.866 22.9311 109.026 23.279C108.186 23.6269 107.219 23.4352 106.576 22.7936C105.933 22.1519 105.741 21.1867 106.089 20.3486Z" fill="#372168"/>
<path d="M513.137 386.775H471.228C470.858 386.775 470.556 386.473 470.556 386.104C470.556 385.734 470.858 385.432 471.228 385.432H513.137C513.507 385.432 513.81 385.734 513.81 386.104C513.81 386.473 513.507 386.775 513.137 386.775Z" fill="#372168"/>
<path d="M465.056 386.775H250.785C250.413 386.775 250.112 386.473 250.112 386.104C250.112 385.734 250.413 385.432 250.785 385.432H465.056C465.426 385.432 465.729 385.734 465.729 386.104C465.729 386.473 465.426 386.775 465.056 386.775Z" fill="#372168"/>
<path d="M244.343 386.775H2.86593C2.49438 386.775 2.19318 386.473 2.19318 386.104C2.19318 385.734 2.49438 385.432 2.86593 385.432H244.343C244.715 385.432 245.016 385.734 245.016 386.104C245.016 386.473 244.715 386.775 244.343 386.775Z" fill="#372168"/>
<path fill-rule="evenodd" clip-rule="evenodd" d="M318.908 85.4934L318.908 85.4857C319.13 83.0388 319.473 75.9365 316.593 71.261C313.102 65.6188 307.38 63.9674 302.539 64.0479C297.692 63.9674 291.971 65.6188 288.479 71.261C285.603 75.9164 285.946 83.0187 286.171 85.4655V85.4843C285.363 85.2158 284.482 85.2692 283.713 85.6334C281.95 86.4691 281.183 89.2617 282.865 91.816C284.139 93.7567 286.29 94.1031 287.929 93.7291C287.99 93.8859 288.049 94.0433 288.109 94.1994L288.109 94.2017L288.11 94.2027C288.16 94.3357 288.21 94.4682 288.26 94.5985L288.469 95.1187C289.528 97.8187 291.089 100.295 293.067 102.419C293.12 102.474 293.172 102.529 293.226 102.584L293.081 102.439V112.609C293.08 113.159 292.684 113.63 292.142 113.727L288.233 114.432C290.985 118.215 296.431 120.786 302.654 120.786C308.877 120.786 314.282 118.235 317.044 114.472L312.903 113.7C312.363 113.6 311.972 113.13 311.971 112.582V102.448L312.002 102.416C313.979 100.293 315.538 97.8173 316.597 95.1187L316.805 94.5985C316.922 94.3132 317.031 94.0181 317.138 93.7265C318.779 94.1047 320.937 93.7614 322.214 91.816C323.883 89.2617 323.129 86.4691 321.36 85.6434C320.592 85.2799 319.714 85.2262 318.908 85.4934ZM304.45 106.665C304.016 106.735 303.577 106.782 303.135 106.803C303.225 106.8 303.324 106.795 303.431 106.786L303.707 106.766L303.858 106.749L304.178 106.709C304.266 106.696 304.357 106.681 304.45 106.665ZM301.65 106.786C301.212 106.754 300.777 106.698 300.347 106.618C300.532 106.655 300.717 106.685 300.885 106.709L301.063 106.732L301.355 106.766L301.628 106.786H301.65ZM287.459 92.3315C287.388 92.1036 287.319 91.8737 287.251 91.6414C287.197 91.4635 287.144 91.2789 287.093 91.091C287.052 90.9369 287.024 90.8282 286.993 90.707L286.972 90.6244C286.932 90.4667 286.918 90.4062 286.895 90.2888C286.885 90.2381 286.87 90.1747 286.855 90.1062C286.834 90.0152 286.811 89.9155 286.794 89.8256C286.779 89.7467 286.762 89.6712 286.745 89.5957C286.728 89.5201 286.711 89.4446 286.696 89.3657L286.676 89.2617C286.639 89.0603 286.602 88.8556 286.568 88.6475C286.541 88.5041 286.518 88.3565 286.498 88.2044C286.487 88.1497 286.479 88.0936 286.47 88.0379C286.466 88.0081 286.462 87.9785 286.457 87.9493C286.427 87.7379 286.397 87.523 286.37 87.3049L286.364 87.2572C286.339 87.0518 286.311 86.8279 286.289 86.6101C286.289 86.5537 286.282 86.4973 286.275 86.4409C286.27 86.4033 286.265 86.3657 286.262 86.3281C286.262 86.3281 286.262 86.2879 286.245 86.214C286.244 86.2076 286.243 86.2019 286.242 86.1959C286.242 86.2019 286.243 86.2076 286.243 86.2134C286.244 86.2211 286.245 86.2278 286.245 86.2342C286.252 86.2845 286.245 86.3483 286.245 86.3483C286.245 86.4423 286.256 86.5362 286.276 86.6302C286.298 86.8538 286.325 87.0854 286.356 87.325C286.383 87.5432 286.414 87.758 286.444 87.9695C286.444 88.0359 286.459 88.1044 286.473 88.1715C286.477 88.1893 286.481 88.2071 286.484 88.2246C286.504 88.3742 286.528 88.5219 286.555 88.6676C286.589 88.8757 286.626 89.0804 286.663 89.2818L286.683 89.3859C286.713 89.5436 286.743 89.6947 286.78 89.8457C286.799 89.9212 286.815 89.9991 286.831 90.0773C286.847 90.1552 286.863 90.2334 286.881 90.3089C286.903 90.3995 286.917 90.4613 286.93 90.5207V90.521C286.939 90.5603 286.948 90.5989 286.959 90.6446C286.985 90.7583 287.039 90.9591 287.079 91.1098L287.08 91.1104V91.1111C287.12 91.2622 287.184 91.4837 287.238 91.6616C287.311 91.8864 287.384 92.11 287.459 92.3315ZM286.236 86.1153C286.235 86.0858 286.233 86.0553 286.222 86.016C286.209 85.972 286.21 85.9509 286.211 85.9334C286.212 85.9187 286.213 85.9062 286.205 85.8851C286.204 85.8817 286.203 85.878 286.202 85.8737C286.202 85.878 286.203 85.8824 286.203 85.8868C286.204 85.8928 286.204 85.8992 286.205 85.9052C286.209 85.9452 286.21 85.968 286.21 85.9831C286.211 86.0069 286.211 86.0113 286.222 86.0361C286.229 86.0532 286.233 86.0831 286.236 86.1153ZM286.188 85.7555C286.186 85.7361 286.185 85.7159 286.183 85.6951C286.181 85.6595 286.178 85.6223 286.175 85.5864C286.176 85.6448 286.181 85.7012 286.188 85.7555Z" fill="#FFC7BB"/>
<path d="M340.775 232.351C340.728 233.494 340.325 234.593 339.622 235.496C339.369 235.871 339.006 236.159 338.582 236.322L338.525 236.369C338.394 236.641 337.57 238.326 336.675 239.275C336.443 239.555 336.103 239.724 335.74 239.739C335.577 239.742 335.414 239.724 335.255 239.685C334.854 240.444 334.023 240.875 333.17 240.769C333.151 240.76 333.128 240.76 333.109 240.769C332.961 240.866 331.838 241.595 331.586 240.413C331.364 239.376 332.312 236.342 332.312 236.342C332.548 235.617 332.648 234.854 332.608 234.093L332.093 225.071C332.094 225.023 332.06 224.983 332.013 224.976C331.966 224.969 331.921 224.998 331.908 225.044C331.558 226.202 331.343 227.397 331.269 228.605C331.031 231.307 329.339 233.539 328.915 228.098C328.915 228.098 328.242 223.735 329.587 220.224C329.587 220.207 329.595 220.192 329.604 220.176L329.607 220.169L329.609 220.164C329.612 220.158 329.615 220.151 329.618 220.144C330.619 217.538 330.985 214.732 330.687 211.957C328.596 201.169 327.678 191.868 327.284 185.233C326.078 184.902 324.972 184.334 323.993 183.831C323.596 183.628 323.22 183.435 322.867 183.273C322.354 183.079 321.822 182.941 321.279 182.863C320.815 181.744 320.366 180.758 319.934 179.903L322.476 171.112C324.649 171.639 325.652 172.096 325.541 172.609C325.43 173.123 323.765 173.616 322.91 173.556C322.934 173.561 322.981 173.571 323.047 173.585C323.633 173.712 325.746 174.168 327.024 174.518L327.024 174.499C327.024 174.499 325.652 165.346 325.726 159.583L330.63 142.374L330.967 141.156C331.439 141.011 331.901 140.833 332.349 140.626C335.04 139.384 337.395 137.088 339.181 134.893C339.749 141.213 339.924 152.843 336.712 171.982C336.49 173.429 336.55 174.905 336.894 176.328C337.983 181.111 340.291 194.4 338.609 215.992C338.737 216.502 341.018 227.441 340.775 232.351Z" fill="#FFC7BB"/>
<path d="M280.793 372.738H290.396L291.796 350.441H279.114L280.793 372.738Z" fill="#FFC7BB"/>
<path d="M327.058 372.738H317.451L315.776 350.441H328.457L327.058 372.738Z" fill="#FFC7BB"/>
<path d="M256.325 167.142C259.251 169.045 272.047 175.556 283.383 177.234L283.02 175.774L282.962 175.543L280.463 165.668C277.615 163.976 274.67 162.453 271.643 161.107C268.962 159.885 266.974 159.093 266.974 159.093L274.237 141.079C270.584 139.709 267.2 136.353 264.906 133.668C264.569 133.275 264.26 132.896 263.974 132.537C263.759 132.265 263.557 132.006 263.372 131.765C259.968 140.642 255.299 153.477 254.36 162.896C254.164 164.567 254.922 166.207 256.325 167.142Z" fill="#FFC7BB"/>
<path fill-rule="evenodd" clip-rule="evenodd" d="M326.362 174.549C326.234 173.683 324.996 165.151 325.067 159.586C325.068 159.527 325.075 159.469 325.09 159.412L330.341 140.985C330.403 140.765 330.573 140.592 330.792 140.525C331.235 140.389 331.669 140.223 332.09 140.028C334.27 139.021 336.55 137.108 338.68 134.483C338.851 134.27 339.137 134.182 339.4 134.262C339.662 134.342 339.85 134.573 339.874 134.846C340.735 144.435 339.874 157.334 337.398 172.103C337.19 173.464 337.25 174.852 337.573 176.191C338.653 180.937 340.987 194.316 339.312 215.945C339.615 217.401 341.687 227.595 341.451 232.391C341.398 233.674 340.944 234.907 340.153 235.919C339.857 236.324 339.474 236.654 339.026 236.882C338.532 237.91 337.906 238.871 337.169 239.742C336.816 240.15 336.307 240.393 335.767 240.413C335.705 240.417 335.643 240.417 335.582 240.413C335.046 241.121 334.191 241.513 333.304 241.457C332.987 241.645 332.627 241.751 332.258 241.763C332.086 241.764 331.914 241.732 331.754 241.669C331.305 241.468 330.992 241.051 330.926 240.564C330.681 239.413 331.501 236.688 331.67 236.154C331.881 235.504 331.971 234.822 331.935 234.14L331.7 230.015C331.421 231.066 330.889 232.123 330.018 232.123C329.009 232.123 328.474 230.904 328.259 228.186C328.198 227.78 327.626 223.544 328.985 219.996V219.966L329.002 219.915C329.958 217.417 330.312 214.728 330.035 212.068C328.654 204.925 327.523 196.028 326.642 185.378L327.992 185.616C328.874 196.106 329.993 204.852 331.35 211.853V211.907C331.653 214.787 331.273 217.699 330.24 220.405C330.24 220.405 330.24 220.436 330.216 220.463C328.935 223.819 329.544 227.978 329.561 228.018C329.572 228.045 329.568 228.051 329.564 228.057C329.563 228.06 329.561 228.063 329.561 228.068C329.682 229.592 329.897 230.297 330.021 230.609C330.347 229.975 330.537 229.28 330.58 228.568C330.656 227.306 330.882 226.058 331.253 224.849C331.355 224.528 331.658 224.312 331.996 224.319L331.993 224.316H332.107C332.475 224.372 332.751 224.683 332.763 225.054L333.274 234.056C333.318 234.901 333.204 235.747 332.938 236.55C332.568 237.735 332.104 239.678 332.228 240.276C332.238 240.322 332.253 240.367 332.272 240.41C332.43 240.376 332.58 240.311 332.712 240.219C332.871 240.108 333.066 240.063 333.257 240.094C333.822 240.165 334.372 239.879 334.636 239.376C334.775 239.098 335.087 238.951 335.39 239.02C335.49 239.045 335.593 239.057 335.696 239.057C335.884 239.048 336.058 238.956 336.17 238.806C336.974 237.95 337.758 236.372 337.906 236.067C337.946 235.979 338.007 235.903 338.081 235.842L338.118 235.812C338.199 235.737 338.3 235.684 338.407 235.657C338.451 235.657 338.676 235.573 339.08 235.066C339.699 234.275 340.052 233.31 340.089 232.307C340.321 227.629 338.155 217.062 337.973 216.196C337.953 216.135 337.943 216.07 337.943 216.005V215.951C339.625 194.43 337.314 181.185 336.261 176.49C335.899 174.981 335.834 173.417 336.073 171.884C338.945 154.766 339.1 143.415 338.66 136.574C336.698 138.743 334.684 140.314 332.655 141.247C332.291 141.416 331.918 141.566 331.538 141.696L326.409 159.7C326.348 165.328 327.675 174.252 327.7 174.42L327.7 174.422V174.546H326.369L326.568 182.521L326.362 174.549ZM326.568 182.521L326.639 185.377L326.642 185.378C326.642 185.377 326.642 185.377 326.642 185.376L326.568 182.521Z" fill="#372168"/>
<path fill-rule="evenodd" clip-rule="evenodd" d="M274.873 383.09H296.313C296.275 382.647 296.144 382.214 295.93 381.824L291.146 373.228C290.985 372.93 290.675 372.742 290.336 372.738H280.561C280.328 372.742 280.116 372.869 280.006 373.074L275.246 381.831C275.035 382.22 274.908 382.65 274.873 383.09ZM316.196 383.1L345.242 383.15H345.256C344.879 382.472 344.351 381.888 343.712 381.445C342.642 380.703 340.493 379.246 337.993 377.85C335.737 376.588 330.693 374.01 328.937 373.111C328.803 373.044 328.688 372.983 328.595 372.936C328.415 372.842 328.216 372.795 328.013 372.795H316.943C316.744 372.795 316.554 372.876 316.414 373.013C316.274 373.154 316.195 373.346 316.196 373.544V383.1Z" fill="#FF6666"/>
<path fill-rule="evenodd" clip-rule="evenodd" d="M291.086 372.789V365.351H280.103V372.789H291.086ZM327.606 372.799V365.351H316.624V372.799H327.606Z" fill="white"/>
<path fill-rule="evenodd" clip-rule="evenodd" d="M295.951 383.147L274.873 383.096V385.198C274.873 385.651 275.14 386.02 275.471 386.02H296.361C296.478 385.026 296.333 384.006 295.951 383.147ZM345.242 383.147L316.196 383.096V385.198C316.196 385.651 316.565 386.02 317.02 386.02H345.808C345.969 385.026 345.77 384.006 345.242 383.147Z" fill="white"/>
<g style="mix-blend-mode:soft-light" opacity="0.4">
<g style="mix-blend-mode:soft-light" opacity="0.4">
<path d="M322.117 380.844C323.738 380.844 325.053 379.532 325.053 377.914C325.053 376.296 323.738 374.984 322.117 374.984C320.495 374.984 319.18 376.296 319.18 377.914C319.18 379.532 320.495 380.844 322.117 380.844Z" fill="white"/>
</g>
</g>
<g style="mix-blend-mode:multiply" opacity="0.15">
<g style="mix-blend-mode:multiply" opacity="0.15">
<path fill-rule="evenodd" clip-rule="evenodd" d="M311.312 103.111V112.945C302.93 113.076 296.717 108.77 293.753 106.195V103.1C294.421 103.737 295.146 104.311 295.92 104.816C297.78 106.072 299.961 106.77 302.206 106.829H302.879C305.125 106.77 307.306 106.072 309.166 104.816C309.931 104.312 310.649 103.742 311.312 103.111Z" fill="#7C3830"/>
</g>
</g>
<path fill-rule="evenodd" clip-rule="evenodd" d="M342.568 129.996C342.309 130.456 341.895 131.171 341.317 132.026C341.182 132.228 341.041 132.439 340.89 132.654C340.405 133.356 339.84 134.124 339.208 134.903C337.425 137.098 335.074 139.394 332.376 140.636C331.928 140.844 331.466 141.021 330.994 141.166L330.657 142.385L327.798 152.417L326.9 155.565L326.395 157.334L325.753 159.593L322.746 170.149L322.476 171.112L319.967 179.916H284.059L283.386 177.231L283.016 175.771L282.959 175.54L282.084 172.076L280.611 166.262L280.46 165.665L274.24 141.075C270.587 139.699 267.203 136.376 264.909 133.664C264.573 133.272 264.263 132.892 263.977 132.533C263.762 132.261 263.56 132.003 263.375 131.761C262.988 131.258 262.672 130.818 262.433 130.479C262.127 130.044 262.184 129.451 262.568 129.083C263.056 128.61 263.56 128.126 264.088 127.643C265.891 125.965 267.78 124.381 269.746 122.897C269.992 122.736 270.217 122.585 270.419 122.437C270.873 122.101 271.341 121.766 271.828 121.43L272.212 121.178C272.404 121.051 272.602 120.927 272.801 120.806C273.289 120.504 273.79 120.211 274.304 119.926C275.152 119.457 276.033 119.01 276.931 118.584C278.014 118.07 279.118 117.577 280.221 117.154L280.968 116.859L281.048 116.828C281.233 116.755 281.425 116.681 281.61 116.614C282.569 116.251 283.521 115.915 284.453 115.607C285.704 115.187 286.911 114.815 288.038 114.489L288.23 114.432C290.982 118.215 296.407 120.786 302.65 120.786C308.742 120.786 314.05 118.342 316.862 114.707C316.923 114.63 316.983 114.553 317.041 114.472C318.174 114.808 319.395 115.18 320.663 115.603C321.592 115.915 322.544 116.251 323.506 116.61L323.842 116.741L324.138 116.855L324.885 117.151C325.988 117.59 327.092 118.07 328.175 118.58C329.073 119.003 329.951 119.45 330.802 119.923C331.313 120.208 331.811 120.5 332.302 120.802C332.504 120.923 332.702 121.047 332.894 121.175L333.274 121.427C333.765 121.762 334.233 122.098 334.684 122.434C336.836 124.018 338.895 125.722 340.856 127.539C341.391 128.032 341.909 128.519 342.403 128.999C342.679 129.254 342.75 129.665 342.568 129.996Z" fill="#FF9966"/>
<path d="M288.042 114.489V133.668H316.866V114.724C316.926 114.647 316.987 114.569 317.044 114.489C318.178 114.825 319.399 115.197 320.667 115.62C321.595 115.932 322.547 116.268 323.509 116.627L323.856 116.738V139.018H319.947V179.903H319.95C320.374 180.762 320.822 181.749 321.296 182.863C328.413 200.072 334.068 241.598 338.744 342.899H338.737C338.855 345.377 338.972 347.89 339.087 350.441H307.131L306.936 342.899H306.943L303.703 216.804H301.621L298.769 350.441H268.232C268.3 348.092 268.367 345.585 268.438 342.899C268.469 341.715 268.501 340.496 268.534 339.251L268.534 339.227C269.788 291.326 272.183 199.812 284.059 179.903H284.009V139.025H281.052V116.832C281.237 116.758 281.429 116.684 281.614 116.617C282.572 116.254 283.524 115.919 284.456 115.61C285.707 115.187 286.915 114.814 288.042 114.489Z" fill="#8C9AD9"/>
<g style="mix-blend-mode:soft-light" opacity="0.4">
<g style="mix-blend-mode:soft-light" opacity="0.4">
<path d="M288.042 139.028L288.282 133.668H316.792L316.866 139.222H319.947V179.903H284.009V139.028H288.042Z" fill="white"/>
</g>
</g>
<g style="mix-blend-mode:soft-light" opacity="0.4">
<g style="mix-blend-mode:soft-light" opacity="0.4">
<path fill-rule="evenodd" clip-rule="evenodd" d="M298.769 350.441L298.93 342.899H268.438C268.409 343.973 268.382 345.021 268.354 346.038L268.232 350.441H298.769ZM338.737 342.899H306.936L307.131 350.441H339.087C339.009 348.74 338.932 347.058 338.855 345.39L338.737 342.899Z" fill="white"/>
</g>
</g>
<path fill-rule="evenodd" clip-rule="evenodd" d="M302.962 63.3911L302.624 63.3935C298.937 63.3364 292.125 64.2158 287.981 70.9287C285.412 75.0857 285.296 80.9686 285.481 84.269L285.505 84.6624C284.794 84.5919 284.071 84.7157 283.417 85.0292C282.431 85.5314 281.71 86.4329 281.439 87.5029C281.037 89.1151 281.352 90.8218 282.303 92.1852C283.271 93.6845 284.95 94.5747 286.737 94.5347C286.993 94.5314 287.249 94.5116 287.502 94.4743L287.701 94.9983C287.71 95.0221 287.719 95.0456 287.729 95.0687L287.738 95.0919L287.753 95.1288L287.86 95.3873C288.921 98.0731 290.458 100.545 292.397 102.686L292.408 102.697V112.609C292.408 112.834 292.246 113.026 292.024 113.066L288.112 113.771C288.045 113.783 287.981 113.805 287.922 113.835C287.899 113.839 287.876 113.844 287.853 113.851C286.639 114.204 285.421 114.583 284.241 114.979C283.242 115.315 282.28 115.65 281.385 115.986C281.19 116.053 280.991 116.13 280.8 116.207C280.744 116.23 280.693 116.259 280.646 116.294L279.986 116.556C278.832 117.016 277.712 117.503 276.659 118.003C275.714 118.446 274.815 118.903 273.991 119.362C273.443 119.665 272.942 119.957 272.464 120.255C272.256 120.379 272.05 120.51 271.862 120.635L271.268 121.024C270.868 121.291 270.466 121.581 270.039 121.9H270.019L269.9 121.987C269.737 122.104 269.558 122.224 269.383 122.34L269.349 122.363C267.36 123.857 265.452 125.455 263.631 127.149C263.233 127.514 262.848 127.879 262.512 128.202L262.097 128.603C261.471 129.2 261.379 130.164 261.878 130.868C262.128 131.22 262.369 131.551 262.612 131.874C258.907 141.554 254.599 153.729 253.691 162.839L253.679 162.956C253.505 164.836 254.378 166.664 255.958 167.712C259.053 169.727 271.578 176.062 282.843 177.839L283.339 179.802L283.339 179.812C271.497 200.351 269.132 290.635 267.863 339.228L267.682 346.018L267.56 350.421C267.554 350.603 267.623 350.777 267.75 350.908C267.876 351.039 268.051 351.113 268.233 351.113H278.485L279.531 364.982C279.461 365.089 279.42 365.213 279.42 365.351V372.755L274.654 381.512C274.428 381.932 274.281 382.385 274.222 382.858C274.202 382.909 274.189 382.966 274.183 383.026L274.183 384.996C274.192 385.412 274.358 385.812 274.648 386.114C274.959 386.44 275.388 386.628 275.838 386.634H295.348C296.276 386.611 297.01 385.845 296.989 384.919V383.378C296.989 383.315 296.988 383.254 296.984 383.194C296.992 383.14 296.994 383.086 296.989 383.033C296.941 382.492 296.782 381.969 296.522 381.495L291.74 372.9C291.746 372.863 291.749 372.826 291.749 372.789V365.351C291.749 365.17 291.677 365.009 291.562 364.888L292.425 351.113H298.755C298.934 351.116 299.106 351.049 299.235 350.925C299.364 350.801 299.438 350.633 299.442 350.455L299.603 342.913C299.604 342.859 299.599 342.806 299.587 342.752L302.274 217.475H303.047L306.267 342.812C306.264 342.839 306.262 342.869 306.263 342.9L306.458 350.441C306.458 350.811 306.759 351.113 307.131 351.113H315.147L316.183 364.847C316.043 364.968 315.954 365.149 315.954 365.351V372.527C315.688 372.785 315.524 373.145 315.524 373.544V385.201C315.524 386.027 316.194 386.695 317.02 386.695H332.585V386.685H345.794C346.12 386.691 346.406 386.46 346.467 386.137C346.662 384.99 346.433 383.808 345.828 382.815L345.808 382.781L345.787 382.751C345.363 382.016 344.782 381.381 344.082 380.898C343.009 380.146 340.836 378.673 338.32 377.266C336.581 376.293 333.168 374.524 330.911 373.366L328.901 372.339C328.707 372.238 328.498 372.175 328.282 372.144V365.351C328.282 365.247 328.258 365.146 328.214 365.056L329.087 351.113H339.087C339.268 351.103 339.437 351.022 339.558 350.888C339.685 350.757 339.753 350.579 339.746 350.394C339.635 347.84 339.524 345.326 339.41 342.849L339.289 340.278C337.378 299.441 335.28 267.422 332.838 242.796L332.685 241.266C332.779 241.328 332.889 241.36 333.002 241.36C333.177 241.36 333.343 241.283 333.456 241.148C334.709 239.651 335.142 235.67 335.248 234.466L335.272 234.167C335.401 231.859 335.308 229.543 334.993 227.253C334.944 226.932 334.643 226.712 334.322 226.761C334 226.81 333.78 227.11 333.829 227.43C334.127 229.636 334.217 231.864 334.098 234.086C334.001 235.442 333.533 239.222 332.551 240.396L332.591 240.343C329.735 212.383 326.411 194.278 322.377 183.806C322.447 183.83 322.518 183.855 322.588 183.88C322.805 183.981 323.036 184.097 323.278 184.22L324.065 184.624C325.523 185.369 327.282 186.186 329.248 186.186C329.503 186.183 329.747 186.075 329.92 185.888C330.023 185.778 330.104 185.651 330.159 185.512C330.551 185.595 330.96 185.54 331.316 185.357C331.678 185.159 331.914 184.791 331.942 184.381C331.952 184.295 331.952 184.208 331.942 184.122C332.26 184.201 332.594 184.177 332.897 184.055C333.311 183.863 333.588 183.462 333.621 183.008L333.63 182.923C333.698 182.016 332.886 181.083 332.097 180.396C332.199 180.315 332.29 180.22 332.366 180.114C332.706 179.658 332.747 179.045 332.47 178.547C332.114 177.866 329.258 174.6 328.003 174.113C327.231 173.856 326.445 173.642 325.649 173.472C325.91 173.3 326.1 173.039 326.18 172.737C326.412 171.672 325.131 171.117 323.501 170.671L323.308 170.619L331.552 141.686C331.932 141.556 332.304 141.406 332.669 141.237C335.06 140.132 337.442 138.142 339.733 135.319L339.948 135.052C340.456 134.421 340.96 133.741 341.448 133.033L341.562 132.869C341.673 132.705 341.781 132.545 341.885 132.389C341.895 132.376 341.906 132.363 341.912 132.349C342.403 131.598 342.783 130.974 343.039 130.531L343.164 130.315L343.197 130.248C343.49 129.669 343.372 128.965 342.905 128.509C342.538 128.154 342.138 127.774 341.69 127.358L340.92 126.647C339.07 124.959 337.132 123.368 335.114 121.883H335.097C334.61 121.521 334.142 121.188 333.674 120.876L333.291 120.621C333.089 120.487 332.881 120.359 332.682 120.239L332.532 120.146C332.329 120.023 332.114 119.896 331.885 119.764L331.152 119.342C330.304 118.889 329.406 118.433 328.484 118C327.384 117.48 326.267 116.996 325.157 116.553L324.208 116.18C324.173 116.157 324.134 116.139 324.094 116.123L324.004 116.087L323.748 115.989C322.833 115.654 321.888 115.318 320.879 114.982C319.976 114.682 319.053 114.39 318.08 114.097L317.402 113.894C317.331 113.851 317.253 113.82 317.169 113.804L313.058 113.046C312.848 113.006 312.693 112.828 312.681 112.616L312.682 102.804C314.67 100.638 316.243 98.1251 317.32 95.3906C317.394 95.2161 317.461 95.0483 317.535 94.8603L317.605 94.6797L317.674 94.4971C317.896 94.5223 318.119 94.5347 318.342 94.5347L318.464 94.5357C320.198 94.528 321.816 93.6473 322.759 92.1886L322.839 92.0708C323.723 90.7258 324.007 89.0714 323.617 87.5063C323.345 86.4363 322.624 85.5347 321.639 85.0326C321.036 84.7436 320.374 84.6157 319.718 84.654C319.925 81.4398 319.903 75.2404 317.239 70.9254C313.219 64.43 306.702 63.3952 302.962 63.3911ZM316.869 385.201V383.775L344.832 383.825C345.064 384.301 345.189 384.822 345.195 385.352H317.02C316.937 385.352 316.869 385.285 316.869 385.201ZM275.535 383.761V384.919C275.517 385.11 275.654 385.282 275.845 385.305H295.355C295.545 385.282 295.682 385.11 295.664 384.919V383.775L275.535 383.761ZM316.943 373.467H328.013C328.11 373.467 328.206 373.49 328.292 373.534L329.438 374.121L328.41 374.034C328.225 374.017 328.063 374.155 328.047 374.339C328.031 374.524 328.168 374.685 328.353 374.702L330.585 374.89L329.665 376.303C329.565 376.457 329.61 376.665 329.766 376.766C329.82 376.8 329.883 376.82 329.947 376.82C329.962 376.82 329.976 376.82 329.99 376.817L330.008 376.82L332.229 377.004L331.306 378.421C331.24 378.525 331.235 378.656 331.294 378.763C331.353 378.871 331.466 378.938 331.589 378.938C331.703 378.938 331.81 378.881 331.871 378.783L332.991 377.068L335.526 377.283C336.173 377.625 336.772 377.948 337.274 378.223L337.832 378.532C339.837 379.659 341.603 380.821 342.73 381.593L343.312 381.996C343.476 382.113 343.635 382.237 343.783 382.375L343.89 382.476L316.869 382.429L316.869 373.544C316.868 373.524 316.876 373.504 316.89 373.49C316.903 373.474 316.923 373.467 316.943 373.467ZM290.485 373.46H280.552L275.828 382.153C275.786 382.237 275.75 382.328 275.72 382.418H295.469C295.432 382.324 295.389 382.234 295.341 382.147L290.558 373.551C290.541 373.514 290.515 373.484 290.485 373.46ZM287.983 375.038C287.985 374.913 287.919 374.799 287.811 374.739C287.703 374.678 287.571 374.682 287.467 374.749L285.592 375.857L283.719 374.749C283.56 374.665 283.362 374.722 283.272 374.88C283.182 375.034 283.231 375.232 283.383 375.33L284.935 376.246L283.383 377.162L283.351 377.182L283.324 377.206L283.298 377.233L283.277 377.26L283.265 377.28L283.248 377.31L283.235 377.347C283.228 377.367 283.223 377.387 283.221 377.411L283.219 377.431V377.471C283.22 377.495 283.224 377.518 283.23 377.538L283.242 377.575L283.258 377.609L283.272 377.632L283.295 377.666L283.313 377.683L283.329 377.699L283.361 377.726L283.383 377.74L284.936 378.656L283.383 379.572C283.253 379.649 283.19 379.804 283.23 379.948C283.27 380.096 283.403 380.197 283.554 380.197C283.615 380.197 283.674 380.18 283.726 380.15L285.596 379.045L287.467 380.15C287.517 380.18 287.576 380.197 287.635 380.197C287.755 380.197 287.866 380.136 287.927 380.032C287.972 379.955 287.985 379.864 287.962 379.777C287.94 379.69 287.884 379.616 287.806 379.572L286.255 378.656L287.806 377.74C287.884 377.696 287.94 377.622 287.962 377.535C287.985 377.448 287.972 377.357 287.927 377.28C287.887 377.213 287.826 377.162 287.756 377.135L286.251 376.246L287.838 375.31C287.927 375.246 287.982 375.145 287.983 375.038ZM285.594 376.635L284.213 377.451L285.596 378.267L286.977 377.451L285.594 376.635ZM333.408 376.431L333.535 376.236L334.003 376.481L333.408 376.431ZM331.271 375.061L330.54 376.189L332.646 376.367L332.935 375.924L331.593 375.229L331.271 375.061ZM280.961 366.022H290.146L289.767 372.064H281.415L281.278 370.241H286.895C287.08 370.241 287.231 370.09 287.231 369.906C287.231 369.721 287.08 369.57 286.895 369.57H281.228L280.961 366.022ZM326.805 366.022H317.623L317.89 369.58H319.089C319.275 369.58 319.426 369.731 319.426 369.916C319.426 370.1 319.275 370.251 319.089 370.251H317.94L318.077 372.064H326.426L326.539 370.251H321.218C321.033 370.251 320.882 370.1 320.882 369.916C320.882 369.731 321.033 369.58 321.218 369.58H326.582L326.805 366.022ZM316.502 351.113H327.741L326.889 364.68H317.522L316.502 351.113ZM291.079 351.113H279.841L280.86 364.68H290.23L291.079 351.113ZM307.632 343.571H338.111C338.131 343.977 338.148 344.386 338.168 344.796L338.394 349.77H307.804L307.632 343.571ZM298.23 343.584H269.093L269.024 346.32H277.402C277.588 346.32 277.739 346.471 277.739 346.655C277.739 346.84 277.588 346.991 277.402 346.991H269.007L268.977 348.122C268.961 348.679 268.944 349.23 268.926 349.77H298.096L298.23 343.584ZM281.56 346.655C281.56 346.471 281.409 346.32 281.223 346.32H279.878C279.692 346.32 279.542 346.471 279.542 346.655C279.542 346.84 279.692 346.991 279.878 346.991H281.223C281.409 346.991 281.56 346.84 281.56 346.655ZM319.53 180.588H284.446C282.418 184.15 280.672 189.828 279.165 197.032L279.165 197.036C282.087 195.802 284.719 189.479 285.532 186.975C285.658 186.636 286.029 186.457 286.372 186.569C286.716 186.681 286.91 187.044 286.811 187.391C286.207 189.176 285.471 190.913 284.607 192.587C282.75 196.156 280.817 198.153 278.861 198.525L278.861 198.522C271.988 233.046 270.238 299.834 269.206 339.217L269.128 342.228H298.258L300.934 217.475H299.643C299.272 217.475 298.971 217.175 298.971 216.804C298.971 216.433 299.272 216.133 299.643 216.133H305.954C306.325 216.133 306.626 216.433 306.626 216.804C306.626 217.175 306.325 217.475 305.954 217.475H304.4L307.598 342.211H338.037L337.909 339.469C334.559 268.164 330.643 223.966 325.32 199.177C321.075 198.157 317.306 189.09 316.893 188.036C316.753 187.692 316.92 187.3 317.264 187.161C317.609 187.022 318.001 187.188 318.141 187.532L318.269 187.843C319.381 190.495 322.258 196.231 324.978 197.622C323.632 191.628 322.197 186.838 320.66 183.132C320.27 182.195 319.89 181.343 319.53 180.588ZM286.908 286.105C287.366 285.383 287.1 284.333 286.202 283.299C286.124 283.204 286.001 283.158 285.881 283.181C285.76 283.202 285.661 283.288 285.622 283.405C285.583 283.521 285.611 283.649 285.694 283.738L285.76 283.816C286.383 284.57 286.613 285.321 286.34 285.752C286.134 286.075 285.647 286.229 284.994 286.175C284.144 286.074 283.33 285.777 282.616 285.306L282.46 285.206C282.099 284.966 281.764 284.69 281.459 284.383C281.378 284.286 281.25 284.243 281.127 284.27C281.003 284.298 280.906 284.393 280.875 284.515C280.843 284.637 280.883 284.766 280.978 284.849L281.124 284.993C281.47 285.324 281.849 285.619 282.256 285.873C283.065 286.403 283.986 286.736 284.947 286.847H285.25C286.023 286.847 286.605 286.575 286.908 286.105ZM322.551 283.299C323.452 284.333 323.714 285.383 323.257 286.105C322.958 286.575 322.372 286.847 321.599 286.847H321.296C320.391 286.743 319.522 286.442 318.748 285.965L318.605 285.873C318.138 285.585 317.707 285.241 317.323 284.849C317.211 284.715 317.221 284.516 317.347 284.394C317.473 284.271 317.672 284.267 317.804 284.383C318.109 284.691 318.444 284.966 318.805 285.206L318.961 285.306C319.676 285.777 320.492 286.075 321.343 286.175C321.992 286.229 322.48 286.075 322.688 285.752C322.971 285.306 322.719 284.517 322.043 283.738C321.959 283.649 321.932 283.521 321.971 283.405C322.01 283.288 322.109 283.202 322.229 283.181C322.35 283.158 322.473 283.204 322.551 283.299ZM335.326 240.396C335.447 240.256 338.306 236.812 336.846 227.055C336.789 226.741 336.497 226.529 336.179 226.576C335.864 226.623 335.643 226.913 335.683 227.229C336.951 235.71 334.815 239.111 334.475 239.589L334.399 239.689C334.279 239.859 334.258 240.082 334.346 240.274C334.442 240.481 334.65 240.614 334.879 240.615C335.053 240.612 335.217 240.532 335.326 240.396ZM338.895 226.883C339.79 231.447 338.845 236.632 338.801 236.877V236.879C338.744 237.13 338.532 237.313 338.276 237.333L338.226 237.335C338.189 237.339 338.152 237.339 338.115 237.335C337.819 237.277 337.617 237.008 337.637 236.713L337.647 236.633L337.657 236.581C337.768 235.899 338.535 231.156 337.738 227.108C337.674 226.789 337.886 226.481 338.202 226.419C338.522 226.356 338.831 226.565 338.895 226.883ZM302.805 199.156C302.805 198.507 302.278 197.981 301.628 197.981C300.978 197.981 300.451 198.507 300.451 199.156C300.451 199.804 300.978 200.33 301.628 200.33C302.278 200.33 302.805 199.804 302.805 199.156ZM301.628 192C302.278 192 302.805 192.526 302.805 193.174C302.805 193.823 302.278 194.349 301.628 194.349C300.978 194.349 300.451 193.823 300.451 193.174C300.451 192.526 300.978 192 301.628 192ZM302.805 187.19C302.805 186.541 302.278 186.015 301.628 186.015C300.978 186.015 300.451 186.541 300.451 187.19C300.451 187.839 300.978 188.365 301.628 188.365C302.278 188.365 302.805 187.839 302.805 187.19ZM322.355 173.96L320.675 179.857C320.862 180.244 321.054 180.656 321.248 181.091L321.365 181.355C321.459 181.565 321.553 181.781 321.647 182.001L321.76 182.266L321.756 182.266L321.756 182.267L321.953 182.305C322.358 182.389 322.755 182.508 323.139 182.662C323.424 182.794 323.718 182.942 324.024 183.1L324.575 183.383C325.811 184.016 327.176 184.668 328.651 184.812C326.825 183.475 324.831 182.383 322.719 181.564C322.496 181.474 322.338 181.273 322.304 181.035C322.271 180.797 322.367 180.56 322.557 180.412C322.746 180.265 323 180.229 323.223 180.319L323.569 180.461C327.274 182.006 329.517 183.757 329.982 184.127C330.18 184.177 330.382 184.205 330.587 184.209C330.203 183.581 329.695 183.039 329.093 182.615C329.055 182.587 329.02 182.555 328.989 182.521L329.049 182.561C327.155 181.268 325.144 180.154 323.042 179.235C322.82 179.142 322.665 178.938 322.635 178.7C322.604 178.462 322.704 178.226 322.895 178.081C323.087 177.936 323.341 177.904 323.563 177.997C325.757 178.952 327.854 180.114 329.826 181.467C329.864 181.494 329.898 181.524 329.929 181.557L329.89 181.531L330.089 181.667C331.51 182.631 332.076 182.811 332.289 182.833C332.332 182.44 331.279 181.37 330.146 180.621C330.09 180.584 330.04 180.54 329.999 180.491L327.236 178.359C326.753 177.986 326.186 177.736 325.585 177.631L325.511 177.614L323.687 177.073C323.444 177.017 323.253 176.831 323.189 176.59C323.126 176.349 323.202 176.092 323.386 175.924C323.57 175.756 323.832 175.704 324.068 175.788L325.857 176.315C326.659 176.463 327.415 176.8 328.06 177.298L330.794 179.404L330.95 179.413L330.99 179.411L331.031 179.413C331.123 179.433 331.22 179.399 331.279 179.326C331.31 179.289 331.32 179.248 331.279 179.175C330.943 178.56 328.319 175.677 327.519 175.368L327.387 175.322C326.997 175.193 326.043 174.93 323.751 174.421L322.87 174.227L322.739 174.2L322.679 174.184C322.552 174.144 322.438 174.066 322.355 173.96ZM333.954 178.523C333.929 178.438 333.871 178.366 333.793 178.323C333.714 178.28 333.622 178.27 333.537 178.295C333.36 178.347 333.258 178.531 333.308 178.708C333.409 179.061 333.594 179.923 333.143 180.339C333.04 180.433 333.005 180.58 333.056 180.71C333.107 180.839 333.232 180.924 333.372 180.923C333.457 180.923 333.539 180.891 333.6 180.833C334.247 180.241 334.139 179.242 333.985 178.639L333.954 178.523ZM316.193 134.339H288.714V139.035C288.709 139.402 288.409 139.696 288.042 139.696H284.685V179.232H319.278V176.768H310.784C310.598 176.768 310.448 176.618 310.448 176.432C310.448 176.247 310.598 176.097 310.784 176.097H319.278V139.696H316.866C316.494 139.696 316.193 139.396 316.193 139.025V134.339ZM263.159 134.218L263.576 133.116C263.86 133.471 264.128 133.795 264.391 134.101C264.675 134.434 264.978 134.779 265.298 135.132C266.392 136.34 267.691 137.632 269.123 138.785L269.242 138.88L269.668 139.212C270.833 140.1 272.077 140.882 273.365 141.447L266.578 158.237C265.461 157.871 264.312 157.61 263.147 157.458C262.775 157.412 262.436 157.675 262.39 158.046C262.343 158.417 262.607 158.755 262.978 158.801C264.254 158.968 265.507 159.272 266.716 159.711C266.741 159.722 266.766 159.731 266.793 159.738C266.855 159.765 266.952 159.805 267.079 159.858L267.082 159.859L267.083 159.86L267.084 159.86H267.085L267.086 159.861C267.687 160.112 268.962 160.643 270.562 161.36L271.347 161.714C274.271 163.01 277.117 164.474 279.871 166.098L282.478 176.409C271.583 174.539 259.672 168.518 256.692 166.578C255.499 165.78 254.857 164.382 255.03 162.96L255.065 162.624C255.966 154.298 259.709 143.353 263.159 134.218ZM324.528 117.722V139.031C324.525 139.4 324.225 139.696 323.856 139.696H320.623V175.08L321.81 170.914C321.82 170.882 321.831 170.852 321.843 170.823L330.283 141.183L329.204 137.917C329.088 137.565 329.28 137.185 329.633 137.069C329.986 136.954 330.366 137.145 330.482 137.497L331.408 140.299C331.64 140.212 331.868 140.116 332.093 140.011C334.273 139.005 336.554 137.091 338.683 134.467C339.181 133.87 339.675 133.21 340.16 132.518L340.341 132.258C340.479 132.059 340.611 131.867 340.735 131.684V131.683L340.738 131.677L340.762 131.637C341.317 130.803 341.721 130.125 341.936 129.746L341.99 129.65C342.023 129.591 342.013 129.516 341.963 129.469L341.542 129.065C341.203 128.741 340.836 128.395 340.429 128.019C338.491 126.228 336.456 124.547 334.33 122.984L334.297 122.961C333.826 122.601 333.375 122.289 332.921 121.981L332.561 121.742C332.359 121.608 332.167 121.487 331.976 121.373C331.542 121.101 331.057 120.819 330.492 120.504C329.675 120.051 328.81 119.608 327.909 119.185C326.833 118.681 325.739 118.205 324.656 117.772L324.528 117.722ZM280.379 117.807V139.025C280.379 139.396 280.68 139.696 281.052 139.696H283.339V173.234L282.718 171.851L274.946 141.11L276.225 137.918C276.298 137.707 276.26 137.472 276.122 137.292C275.973 137.098 275.729 137 275.487 137.038C275.244 137.075 275.041 137.241 274.957 137.471L273.866 140.192C270.605 138.751 267.586 135.753 265.543 133.368L265.484 133.298L264.788 131.741C264.677 131.492 264.427 131.335 264.153 131.343C264.079 131.345 264.006 131.359 263.939 131.385L263.914 131.352C263.604 130.949 263.301 130.536 262.985 130.09C262.871 129.925 262.894 129.702 263.039 129.563C263.352 129.258 263.743 128.882 264.163 128.489L264.962 127.751C266.617 126.231 268.344 124.791 270.136 123.434C270.362 123.286 270.597 123.128 270.809 122.971C270.818 122.967 270.826 122.961 270.833 122.954L271.071 122.777C271.464 122.488 271.84 122.222 272.215 121.97L272.782 121.6C272.907 121.52 273.034 121.441 273.164 121.363L273.399 121.219C273.793 120.98 274.201 120.743 274.641 120.497C275.441 120.054 276.309 119.611 277.231 119.178C278.26 118.691 279.353 118.215 280.483 117.765L280.379 117.807ZM322.939 171.911L322.656 172.905L322.686 172.895C322.765 172.872 322.848 172.862 322.931 172.868C323.524 172.871 324.112 172.746 324.653 172.502C324.103 172.247 323.529 172.049 322.939 171.911ZM257.109 163.195C257.109 163.009 256.958 162.859 256.772 162.859L256.733 162.861C256.566 162.88 256.436 163.022 256.436 163.195C256.415 164.171 256.914 165.086 257.748 165.598C257.799 165.627 257.857 165.642 257.916 165.641V165.645C258.067 165.645 258.2 165.544 258.24 165.398C258.28 165.252 258.218 165.098 258.088 165.02C257.456 164.631 257.082 163.934 257.109 163.195ZM274.088 143.233L267.836 158.734L269.247 159.331C269.994 159.65 270.904 160.047 271.909 160.506C274.474 161.643 276.98 162.908 279.417 164.297L274.088 143.233ZM305.352 155.894L301.551 151.433C301.43 151.293 301.218 151.276 301.076 151.397C300.935 151.517 300.919 151.729 301.039 151.87L304.837 156.331C304.902 156.406 304.996 156.449 305.096 156.448C305.175 156.447 305.251 156.419 305.311 156.367C305.38 156.31 305.422 156.228 305.43 156.139C305.437 156.05 305.409 155.962 305.352 155.894ZM300.784 153.447L302.802 155.83C302.859 155.899 302.888 155.987 302.88 156.075C302.873 156.164 302.83 156.246 302.762 156.304C302.702 156.354 302.627 156.383 302.55 156.384C302.45 156.385 302.355 156.342 302.291 156.267L300.272 153.884C300.152 153.743 300.168 153.531 300.309 153.41C300.451 153.29 300.663 153.306 300.784 153.447ZM305.113 152.689L304.174 151.588C304.096 151.497 303.975 151.454 303.857 151.476C303.739 151.498 303.641 151.581 303.601 151.694C303.561 151.807 303.585 151.933 303.663 152.024L304.601 153.125C304.665 153.2 304.759 153.243 304.857 153.243C304.936 153.242 305.012 153.213 305.072 153.162C305.141 153.105 305.183 153.022 305.191 152.934C305.199 152.845 305.17 152.757 305.113 152.689ZM317.539 115.318V138.353H323.183V117.208C322.302 116.872 321.414 116.56 320.452 116.238C319.489 115.915 318.554 115.623 317.539 115.318ZM284.678 116.251C285.556 115.956 286.457 115.667 287.369 115.395V138.353H281.725L281.731 117.305L281.859 117.258C282.747 116.922 283.692 116.587 284.678 116.251ZM320.361 132.657C321.011 132.657 321.538 133.183 321.538 133.832C321.538 134.481 321.011 135.007 320.361 135.007C319.71 135.007 319.183 134.481 319.183 133.832C319.183 133.183 319.71 132.657 320.361 132.657ZM285.724 133.832C285.724 133.183 285.197 132.657 284.547 132.657C283.897 132.657 283.369 133.183 283.369 133.832C283.369 134.481 283.897 135.007 284.547 135.007C285.197 135.007 285.724 134.481 285.724 133.832ZM288.714 116.061V117.589C290.51 119.837 293.49 121.525 296.932 122.215C297.052 122.227 297.157 122.301 297.207 122.411C297.258 122.521 297.246 122.648 297.175 122.746C297.105 122.845 296.988 122.898 296.868 122.887V122.873C296.846 122.877 296.823 122.877 296.801 122.873C293.525 122.214 290.634 120.686 288.714 118.618L288.714 132.996H316.193L316.193 116.464C313.004 119.582 308.016 121.457 302.654 121.457C297.127 121.457 292.007 119.474 288.838 116.192L288.714 116.061ZM300.932 122.568C300.227 122.58 299.521 122.553 298.819 122.487C298.635 122.47 298.47 122.605 298.453 122.789C298.435 122.974 298.571 123.138 298.755 123.155C299.367 123.212 299.99 123.243 300.612 123.243L300.932 123.239C301.117 123.239 301.268 123.089 301.268 122.904C301.268 122.718 301.117 122.568 300.932 122.568ZM293.763 104.017L293.763 112.569C293.763 113.443 293.135 114.192 292.273 114.348L289.465 114.892C292.341 118.134 297.279 120.114 302.654 120.114C308.029 120.114 312.93 118.147 315.81 114.925L312.812 114.371C311.953 114.214 311.329 113.467 311.329 112.596L311.329 104.099C310.789 104.562 310.219 104.991 309.624 105.383C306.657 107.309 303.989 107.518 302.967 107.501H302.294L302.18 107.494C299.815 107.432 297.517 106.697 295.556 105.376C294.929 104.963 294.33 104.509 293.763 104.017ZM302.203 64.7438L302.519 64.7461C305.927 64.6924 312.197 65.5114 315.991 71.6403C318.679 75.993 318.42 82.7636 318.228 85.1514L318.205 85.432C318.203 85.4464 318.203 85.4612 318.205 85.4756L318.816 85.5273L318.218 85.5126L318.218 85.5163L318.205 85.5159C318.189 85.677 318.174 85.8133 318.16 85.9234L318.117 86.2476V86.3013L318.097 86.5598C318.043 87.0465 317.993 87.4627 317.925 87.9024C317.858 88.3421 317.787 88.7717 317.707 89.1812C317.67 89.3859 317.626 89.6041 317.582 89.7988L317.518 90.0881L317.454 90.3727C317.452 90.3814 317.452 90.3908 317.454 90.3996C317.433 90.4952 317.41 90.5842 317.387 90.6704L317.317 90.9265V90.9702L317.308 90.999L317.299 91.0343L317.282 91.0927L317.21 91.3451L317.129 91.6146L317.094 91.7274C317.073 91.7918 317.051 91.858 317.027 91.9268C316.872 92.4202 316.701 92.9371 316.499 93.5009V93.5345C316.398 93.8131 316.294 94.0984 316.19 94.3669L315.88 95.1416C314.853 97.6593 313.377 99.9712 311.524 101.966C310.707 102.83 309.793 103.597 308.799 104.252C307.795 104.904 306.835 105.334 305.979 105.618H305.957C305.819 105.665 305.685 105.705 305.56 105.742H305.5L305.146 105.836C305.051 105.861 304.955 105.882 304.863 105.901L304.595 105.957C304.423 105.994 304.255 106.021 304.087 106.044C304.059 106.048 304.032 106.052 304.004 106.057C303.934 106.069 303.863 106.081 303.781 106.081H303.653L303.394 106.098C303.245 106.112 303.113 106.116 303.002 106.118L302.207 106.118C302.15 106.118 302.086 106.114 302.012 106.11C301.915 106.104 301.801 106.098 301.668 106.098L301.409 106.078L301.15 106.047C301.135 106.045 301.12 106.042 301.104 106.039C301.071 106.032 301.034 106.024 300.989 106.024C300.827 106.004 300.663 105.974 300.491 105.94C300.319 105.906 300.131 105.87 299.933 105.816L299.822 105.788C299.748 105.768 299.673 105.748 299.596 105.725H299.532C299.398 105.688 299.263 105.645 299.115 105.594C299.068 105.581 299.021 105.564 298.974 105.548C298.95 105.54 298.927 105.532 298.903 105.524C298.765 105.477 298.633 105.424 298.493 105.368L298.463 105.356L298.31 105.294C298.208 105.252 298.105 105.208 298.002 105.161H297.941C297.884 105.138 297.83 105.111 297.763 105.077C297.517 104.967 297.285 104.846 297.04 104.708C296.855 104.605 296.668 104.494 296.483 104.379L296.29 104.252C295.297 103.597 294.383 102.831 293.565 101.969C291.65 99.9044 290.138 97.5015 289.105 94.8838C289.082 94.8257 289.06 94.7683 289.037 94.7113L288.903 94.3736C288.867 94.282 288.832 94.1894 288.796 94.0964L288.587 93.5345L288.499 93.5144C288.267 92.8565 288.038 92.1684 287.826 91.4736C287.801 91.388 287.773 91.2924 287.747 91.1997L287.675 90.9433C287.653 90.8638 287.633 90.7812 287.612 90.6986C287.594 90.6278 287.576 90.5563 287.557 90.4868L287.48 90.1512C287.446 90.0102 287.416 89.8659 287.386 89.7219C287.387 89.7108 287.387 89.6991 287.386 89.688C287.358 89.5709 287.334 89.4534 287.31 89.3305L287.295 89.255L287.223 88.8626C287.205 88.7606 287.187 88.6559 287.171 88.5468C287.144 88.4125 287.123 88.2783 287.103 88.1373C287.105 88.1229 287.105 88.1081 287.103 88.0937L287.083 87.9628V87.8755C287.073 87.806 287.063 87.7369 287.054 87.6667L286.996 87.2378C286.98 87.127 286.967 87.0153 286.954 86.9008L286.915 86.5464C286.891 86.4658 286.891 86.3819 286.891 86.3013C286.893 86.2812 286.893 86.2611 286.891 86.2409L286.875 86.0949V85.9724C286.876 85.9533 286.876 85.9345 286.875 85.9153V85.8247C286.872 85.8039 286.869 85.7818 286.865 85.7579C286.857 85.7025 286.847 85.6388 286.844 85.5636C286.846 85.5391 286.848 85.5142 286.848 85.4891L286.845 85.4357C286.84 85.3615 286.821 85.29 286.792 85.2242C286.597 82.9073 286.299 76.051 289.021 71.6437C292.701 65.6953 298.717 64.7465 302.203 64.7438ZM319.724 86.009L319.61 86.0221L319.56 86.4188L319.537 86.6705L319.494 87.0596C319.458 87.3744 319.421 87.6664 319.382 87.9373L319.358 88.097C319.305 88.4468 319.24 88.8428 319.171 89.2178L319.13 89.4396C319.103 89.585 319.074 89.7306 319.044 89.874L318.92 90.4412C318.903 90.516 318.886 90.5895 318.867 90.6647C318.869 90.6748 318.869 90.6849 318.867 90.6949L318.832 90.8413C319.269 90.8074 319.673 90.5791 319.927 90.2116C320.247 89.7679 320.3 89.1852 320.065 88.6911C319.963 88.5354 320.008 88.3273 320.164 88.2263C320.32 88.1252 320.529 88.1695 320.63 88.3253C320.982 88.9982 320.958 89.8058 320.567 90.4573C320.176 91.1088 319.473 91.5102 318.712 91.5173L318.726 91.5106L318.659 91.5139L318.609 91.6864L318.494 92.0661C318.464 92.1644 318.434 92.2564 318.4 92.353C318.317 92.6222 318.222 92.9038 318.121 93.1985L318.036 93.1921C319.433 93.3244 320.788 92.6947 321.587 91.5515L321.649 91.4602C322.378 90.418 322.623 89.1137 322.322 87.8789C322.155 87.1807 321.695 86.588 321.06 86.251C320.643 86.0523 320.182 85.9694 319.724 86.009ZM284.002 86.2409C284.347 86.0751 284.725 85.9888 285.109 85.9892C285.264 85.9885 285.419 86.0009 285.573 86.0261V86.0999C285.576 86.1301 285.58 86.1573 285.585 86.1828C285.591 86.2171 285.596 86.2486 285.596 86.2812V86.4087C285.599 86.4547 285.606 86.5 285.612 86.543C285.619 86.594 285.627 86.642 285.627 86.684C285.65 86.9256 285.677 87.1639 285.707 87.3922L285.798 88.0635V88.1407C285.801 88.1578 285.805 88.1752 285.808 88.1924C285.816 88.2357 285.825 88.2786 285.825 88.3219C285.837 88.3991 285.849 88.4753 285.86 88.5491L285.896 88.7616C285.933 88.9764 285.97 89.1845 286.01 89.4027L286.03 89.5C286.04 89.5547 286.051 89.6078 286.061 89.6601L286.128 89.9767C286.145 90.0589 286.163 90.1445 286.181 90.224L286.283 90.6745L286.324 90.8393C285.845 90.8393 285.392 90.6043 285.119 90.2049C284.795 89.7625 284.742 89.1778 284.981 88.6844C285.046 88.5837 285.053 88.4558 284.998 88.3488C284.943 88.2417 284.836 88.1722 284.716 88.1658C284.596 88.1595 284.481 88.2179 284.416 88.3186C284.061 88.9909 284.084 89.7988 284.474 90.4506C284.865 91.1024 285.568 91.5042 286.33 91.5106C286.387 91.5122 286.445 91.5116 286.502 91.5079L286.599 91.8395C286.737 92.2993 286.881 92.7457 287.029 93.1821C285.595 93.3183 284.204 92.6518 283.413 91.4501L283.342 91.3451C282.67 90.3204 282.451 89.0624 282.74 87.8688C282.907 87.1707 283.367 86.5779 284.002 86.2409ZM286.555 91.5038C286.537 91.5055 286.52 91.5069 286.502 91.5079L286.555 91.5038Z" fill="#372168"/>
<g style="mix-blend-mode:multiply" opacity="0.15">
<g style="mix-blend-mode:multiply" opacity="0.15">
<path fill-rule="evenodd" clip-rule="evenodd" d="M296.851 92.5601C296.851 94.6089 295.345 96.2697 293.488 96.2697C291.63 96.2697 290.124 94.6089 290.124 92.5601C290.124 90.5113 291.63 88.8502 293.488 88.8502C295.345 88.8502 296.851 90.5113 296.851 92.5601ZM315.016 92.5601C315.016 94.6089 313.51 96.2697 311.652 96.2697C309.794 96.2697 308.288 94.6089 308.288 92.5601C308.288 90.5113 309.794 88.8502 311.652 88.8502C313.51 88.8502 315.016 90.5113 315.016 92.5601Z" fill="#FF1300"/>
</g>
</g>
<path d="M302.55 96.458C301.174 96.458 299.906 95.9847 299.162 95.1959C299.018 95.0429 298.966 94.825 299.027 94.624C299.088 94.4229 299.251 94.2692 299.456 94.2212C299.661 94.1729 299.876 94.2373 300.02 94.3904C300.538 94.9408 301.507 95.2832 302.55 95.2832C303.592 95.2832 304.568 94.9476 305.079 94.3904C305.223 94.2373 305.438 94.1729 305.643 94.2212C305.848 94.2692 306.011 94.4229 306.072 94.624C306.133 94.825 306.081 95.0429 305.937 95.1959C305.187 95.9847 303.925 96.458 302.55 96.458Z" fill="#372168"/>
<path d="M303.448 98.059H301.651C301.466 98.059 301.315 97.9086 301.315 97.7233C301.315 97.5381 301.466 97.3877 301.651 97.3877H303.448C303.633 97.3877 303.784 97.5381 303.784 97.7233C303.784 97.9086 303.633 98.059 303.448 98.059Z" fill="#372168"/>
<path d="M302.561 92.0634C301.826 92.0731 301.135 91.7153 300.721 91.1101C300.544 90.8376 300.622 90.4738 300.896 90.2979C301.169 90.1217 301.533 90.1999 301.71 90.4724C301.914 90.7379 302.232 90.8923 302.568 90.8889C302.904 90.8859 303.219 90.7251 303.418 90.4556C303.587 90.1774 303.95 90.0888 304.229 90.2576C304.508 90.4261 304.596 90.7882 304.428 91.0665C304.021 91.6992 303.314 92.0765 302.561 92.0634Z" fill="#372168"/>
<path d="M295.787 88.0232C297.281 88.0232 297.284 85.7073 295.787 85.7073C294.29 85.7073 294.29 88.0232 295.787 88.0232Z" fill="#372168"/>
<path d="M309.568 88.0232C311.058 88.0232 311.062 85.7073 309.568 85.7073C308.075 85.7073 308.072 88.0232 309.568 88.0232Z" fill="#372168"/>
<path d="M298.836 84.0122C298.728 84.0125 298.622 83.9873 298.526 83.9383C295.879 82.579 293.145 83.9383 293.145 83.9383C292.814 84.1078 292.408 83.9779 292.238 83.648C292.068 83.3181 292.198 82.9129 292.529 82.7434C292.664 82.6763 295.893 81.0652 299.155 82.7434C299.432 82.8847 299.576 83.1966 299.503 83.498C299.43 83.7994 299.16 84.0118 298.849 84.0122H298.836Z" fill="#372168"/>
<path d="M312.489 84.0122C312.383 84.0122 312.278 83.9867 312.183 83.9384C309.533 82.579 306.801 83.9384 306.801 83.9384C306.586 84.0562 306.324 84.0478 306.118 83.9172C305.91 83.7863 305.791 83.5534 305.806 83.309C305.821 83.065 305.968 82.8482 306.189 82.7435C306.324 82.673 309.553 81.0653 312.816 82.7435C313.096 82.8865 313.24 83.204 313.161 83.5081C313.083 83.8122 312.804 84.0216 312.489 84.0122Z" fill="#372168"/>
<path fill-rule="evenodd" clip-rule="evenodd" d="M327.533 99.603C326.924 101.798 325.599 104.359 323.668 105.799C323.668 105.799 323.749 103.785 322.787 103.03C322.787 103.03 322.165 105.601 320.405 105.379L315.393 105.423C315.276 105.424 315.165 105.37 315.093 105.277C315.022 105.184 314.998 105.063 315.03 104.95C315.156 104.286 315.216 103.612 315.208 102.936C312.719 107.994 308.881 103.319 308.881 103.319C320.822 100.489 316.776 75.5204 316.776 75.5204H306.964C307.088 74.4 306.622 73.2954 305.733 72.6003C305.526 73.8791 304.699 74.9726 303.523 75.5204H288.352C286.162 94.7395 291.591 100.694 295.628 104.48C295.628 104.48 292.019 106.403 289.688 102.949C289.792 103.157 290.64 105.843 289.328 105.792H284.134C282.758 105.195 281.574 102.51 281.574 102.51C281.574 102.51 281.574 104.836 281.887 105.796C279.818 104.936 278.591 101.828 277.874 98.784C276.891 94.4945 276.758 90.0545 277.481 85.714C278.554 79.0346 280.912 74.0737 283.27 70.6099C291.161 58.9831 306.19 57.8184 315.642 63.8701C325.528 70.197 328.155 82.814 328.391 92.5108C328.444 94.9036 328.155 97.2917 327.533 99.603Z" fill="#FF6666"/>
<path fill-rule="evenodd" clip-rule="evenodd" d="M304.843 57.0749C304.996 57.1806 305.035 57.3901 304.929 57.5431C304.46 58.2201 303.966 59.027 303.681 59.603C308.151 59.7416 312.479 61.0466 316.012 63.3062C326.928 70.291 328.879 84.5928 329.07 92.5074C329.125 94.8599 328.856 97.2085 328.271 99.4875L328.189 99.7976C327.426 102.55 325.888 105 324.079 106.353C323.87 106.507 323.591 106.528 323.362 106.406C323.149 106.295 323.012 106.079 323.002 105.841V105.786C323.011 105.383 322.971 104.981 322.885 104.587C322.377 105.447 321.559 106.195 320.375 106.074L315.407 106.114C314.884 106.119 314.438 105.738 314.361 105.222C313.885 105.627 313.3 105.884 312.679 105.96C310.422 106.224 308.472 103.887 308.371 103.767L308.37 103.765C308.224 103.586 308.18 103.344 308.254 103.125C308.329 102.906 308.511 102.741 308.737 102.688C317.875 100.52 317.041 84.0394 316.406 77.9212C316.394 77.8772 316.388 77.8306 316.386 77.7826C316.363 77.5302 316.337 77.2778 316.307 77.026L316.286 76.8512C316.26 76.6384 316.231 76.4249 316.2 76.2118H306.964C306.773 76.2124 306.59 76.1319 306.463 75.9902C306.336 75.8493 306.275 75.6616 306.294 75.4733C306.355 74.9511 306.254 74.4228 306.005 73.9596C305.549 74.941 304.754 75.7254 303.765 76.1681C303.688 76.1973 303.605 76.2121 303.523 76.2118H288.954C287.05 93.9272 291.645 99.8513 296.089 104.01C296.248 104.158 296.325 104.374 296.297 104.589C296.268 104.804 296.137 104.993 295.944 105.094C294.837 105.681 292.638 106.185 290.72 104.946C290.717 105.285 290.624 105.618 290.451 105.91C290.227 106.253 289.848 106.463 289.441 106.474L284.134 106.474C284.042 106.474 283.95 106.456 283.865 106.42C283.305 106.139 282.817 105.734 282.439 105.235C282.452 105.317 282.47 105.398 282.491 105.478L282.526 105.598C282.607 105.847 282.534 106.12 282.341 106.297C282.149 106.474 281.87 106.524 281.628 106.423C279.68 105.618 278.197 103.1 277.218 98.9484C276.236 94.6777 276.083 90.2596 276.766 85.9331L276.818 85.6166C277.75 79.7998 279.734 74.6242 282.711 70.2339C287.608 63.0192 295.04 59.7671 302.278 59.5966L301.525 58.389C301.426 58.2315 301.474 58.0241 301.632 57.9258C301.79 57.8274 301.998 57.8757 302.096 58.0332L302.995 59.4764C303.394 58.6702 303.855 57.8959 304.374 57.1605C304.48 57.0074 304.69 56.9692 304.843 57.0749ZM283.798 70.9824C280.987 75.1236 279.095 80.0076 278.173 85.4978L278.12 85.8213C277.406 90.0756 277.536 94.4286 278.503 98.6329L278.601 99.036C279.214 101.486 280.01 103.271 280.945 104.305L280.932 104.124C280.877 103.345 280.875 102.647 280.875 102.513C280.876 102.196 281.099 101.923 281.41 101.858C281.702 101.797 281.998 101.936 282.138 102.195L282.251 102.426C282.706 103.338 283.543 104.71 284.289 105.128V105.131L285.299 105.131C277.245 86.0428 286.181 71.2069 286.319 70.9774L286.32 70.9757C286.368 70.8512 286.485 70.7666 286.619 70.7602C286.752 70.7538 286.877 70.827 286.936 70.9465C286.995 71.066 286.978 71.2093 286.892 71.3113L286.841 71.3986C286.114 72.6459 278.218 86.9447 286.034 105.131L289.334 105.131C289.469 104.795 289.25 103.668 289.069 103.241C288.918 102.926 289.035 102.548 289.338 102.372C289.631 102.202 290.002 102.278 290.207 102.541L290.239 102.587C291.541 104.513 293.3 104.487 294.367 104.232L294.153 104.024C290.638 100.57 285.57 93.9591 287.676 75.4566C287.714 75.1149 288.004 74.8571 288.349 74.8591L293.048 74.8588L293.048 73.6072C293.048 73.4219 293.199 73.2715 293.384 73.2715C293.57 73.2715 293.721 73.4219 293.721 73.6072L293.72 74.8588L298.685 74.8591C299.582 73.3524 298.877 71.2862 298.867 71.2643C298.805 71.0891 298.897 70.8968 299.072 70.8347C299.235 70.777 299.413 70.8518 299.488 71.0032L299.503 71.0395C299.538 71.1385 300.23 73.149 299.444 74.8591H303.365C304.266 74.3754 304.888 73.4984 305.046 72.4894C305.088 72.2646 305.241 72.0759 305.454 71.9893C305.666 71.9027 305.908 71.9306 306.096 72.0632C306.975 72.7398 307.528 73.7548 307.62 74.8591H311.658C312.079 73.484 311.679 71.4426 311.639 71.2402C311.637 71.2304 311.636 71.2251 311.636 71.2241C311.596 71.0435 311.711 70.8649 311.892 70.8246C312.06 70.7881 312.226 70.8837 312.281 71.0421L312.292 71.0797C312.317 71.1885 312.744 73.2564 312.346 74.8591L315.969 74.8588C315.9 74.5074 315.825 74.1573 315.743 73.8085C315.672 73.579 315.729 73.3289 315.893 73.153C316.057 72.9768 316.303 72.9013 316.537 72.955C316.772 73.0084 316.961 73.1829 317.032 73.4125C317.368 74.8316 317.6 76.2729 317.728 77.7255V77.7356L317.768 78.1169C318.431 84.5365 319.089 100.31 310.143 103.644C310.778 104.174 311.673 104.715 312.497 104.618C313.321 104.52 313.987 103.862 314.583 102.651C314.719 102.369 315.033 102.219 315.338 102.289C315.644 102.359 315.861 102.63 315.861 102.943C315.865 103.55 315.823 104.157 315.737 104.758L317.953 104.739L318.076 104.624C322.646 100.258 322.641 90.8298 322.229 85.5662C322.219 85.4464 322.274 85.3303 322.374 85.2621C322.473 85.194 322.601 85.1836 322.71 85.2353C322.819 85.287 322.892 85.3927 322.901 85.5125C323.792 96.7416 321.348 102.143 318.918 104.731L320.379 104.718H320.466C321.506 104.84 322.033 103.146 322.105 102.899L322.114 102.869C322.169 102.647 322.334 102.468 322.552 102.395C322.768 102.321 323.008 102.363 323.187 102.506C323.73 103.004 324.086 103.672 324.196 104.399C325.405 103.016 326.296 101.387 326.807 99.6254L326.864 99.4217C327.472 97.1732 327.753 94.8492 327.698 92.5208L327.685 92.0553C327.435 84.3354 325.442 70.9468 315.252 64.4306C306.197 58.634 291.598 59.4899 283.798 70.9824ZM322.24 80.1996L322.226 80.1345C322.174 79.9747 322.011 79.875 321.842 79.9072C321.754 79.9237 321.676 79.974 321.625 80.0479C321.575 80.1214 321.556 80.2123 321.573 80.2999C321.576 80.309 321.746 81.2085 321.931 82.633L321.986 83.0757C322.007 83.2452 322.152 83.3724 322.323 83.3711H322.36C322.449 83.3604 322.529 83.3144 322.584 83.2439C322.639 83.1734 322.664 83.0838 322.652 82.9952C322.466 81.4361 322.274 80.3788 322.24 80.1996Z" fill="#372168"/>
</svg>
